<?xml version="1.0" encoding="utf-8"?>
<!-- Generator: Adobe Illustrator 27.0.0, SVG Export Plug-In . SVG Version: 6.00 Build 0)  -->
<svg version="1.1" id="Camada_1" xmlns="http://www.w3.org/2000/svg" xmlns:xlink="http://www.w3.org/1999/xlink" x="0px" y="0px"
	 viewBox="0 0 33 33" style="enable-background:new 0 0 33 33;" xml:space="preserve">
<style type="text/css">
	.st0{fill:#FEFEFE;}
	.st1{fill:#020202;}
	.st2{fill:#05AE3F;}
	.st3{fill:#06AE3F;}
	.st4{fill:#09100B;}
	.st5{fill:#FBFBFB;}
	.st6{fill:#FAFAFA;}
	.st7{fill:#F9F9F9;}
	.st8{fill:#F6F6F6;}
	.st9{fill:#F8F9F8;}
	.st10{fill:#F5F5F5;}
	.st11{fill:#F8F8F8;}
	.st12{fill:#F3F3F3;}
	.st13{fill:#F2F2F2;}
	.st14{fill:#DADADA;}
	.st15{fill:#191919;}
	.st16{fill:#050505;}
	.st17{fill:#070707;}
	.st18{fill:#0A0A0A;}
	.st19{fill:#0E0E0E;}
</style>
<g>
	<path class="st0" d="M0,33C0,22,0,11,0,0c11,0,22,0,33,0c0,11,0,22,0,33C22,33,11,33,0,33z M28.9,20.5
		C28.9,20.5,28.9,20.5,28.9,20.5c-0.2,0.1-0.4,0.3-0.6,0.4c-0.2,0.1-0.4,0.2-0.6,0.3c0.1-0.2,0.3-0.3,0.5-0.4
		c0.3-0.1,0.6-0.4,0.8-0.6c1-1.1,1-2.6,0.1-3.8c-0.5-0.7-1.3-1.1-2.1-1.3c-1-0.2-1.9-0.1-2.7,0.6c-0.2,0.1-0.3,0.2-0.4,0.3
		c-0.2,0.1-0.4,0.1-0.6,0.1c0.1-0.7,1.6-1.6,2.7-1.8c1.1-0.1,2.1,0.1,2.9,0.7c0.9,0.7,1.3,1.5,1.4,2.6c0.1-0.4,0-1.1-0.4-1.7
		c0-0.2,0-0.4,0-0.5c0-0.4-0.1-0.7-0.1-1.1c-0.1-0.7-0.3-1.4-0.5-2c-0.3-0.9-0.6-1.7-1.1-2.5c-0.1-0.2-0.3-0.4-0.4-0.6
		c0-0.1-0.1-0.2-0.1-0.3c0.1,0,0.1,0,0.2,0c0.7,0.1,1.3-0.3,1.6-0.9c0.2-0.4,0.2-0.8,0.2-1.2c0-0.4-0.2-0.8-0.5-1
		c-0.2-0.1-0.3-0.2-0.6-0.1c-0.2,0.1-0.2,0.3-0.2,0.5c0,0.3-0.1,0.4-0.4,0.5c-0.5,0-0.9,0-1.4-0.2c-0.6-0.3-1.3-0.6-2-0.6
		c0,0,0,0,0,0c-0.3-0.2-0.5-0.4-0.8-0.5c-0.9-0.6-1.8-1-2.8-1.3c-0.7-0.2-1.4-0.4-2.1-0.5c-0.5-0.1-1.1-0.2-1.6-0.2
		c-0.7,0-1.3,0-2,0.1c-0.3,0-0.7,0.1-1,0.1c-0.7,0.1-1.4,0.3-2.1,0.6c-0.5,0.2-1,0.4-1.4,0.6C10.3,4.2,10,4.1,9.6,4.1
		c0,0-0.1,0-0.1,0C8.9,3.5,7.9,3.9,7.7,4.7c0,0.1-0.1,0.1-0.1,0.1C7,5.2,6.8,5.9,7,6.5c0,0.1,0,0.2,0,0.2C6.9,6.9,6.9,7.1,6.8,7.2
		c0,0-0.1,0.1-0.1,0.1C6.4,7.7,6.1,8,5.8,8.4C5.4,8.9,5.1,9.5,4.8,10c-0.2,0.4-0.4,0.8-0.6,1.2c-0.2,0.6-0.4,1.1-0.6,1.7
		c-0.2,0.6-0.3,1.1-0.3,1.7c-0.1,0.4-0.1,0.9-0.1,1.3c0,0.7,0,1.3,0.1,2C3.1,18,3.1,18.1,3,18.2c-0.2,0.3-0.3,0.5-0.2,0.9
		c0.1,0.2,0.2,0.4,0.4,0.5c0.1,0.1,0.2,0.1,0.3,0.2c0.2,0.9,0.6,1.8,1,2.7c0.4,0.8,0.8,1.5,1.4,2.2c0.3,0.4,0.7,0.8,1,1.2
		c0.2,0.2,0.4,0.4,0.6,0.6c0.3,0.3,0.7,0.6,1.1,0.9c0.8,0.6,1.6,1,2.4,1.4c0.7,0.3,1.3,0.5,2,0.7c0.9,0.2,1.8,0.4,2.7,0.4
		c0.8,0,1.7,0.1,2.5-0.1c0.5-0.1,0.9-0.1,1.4-0.2c0.9-0.2,1.9-0.5,2.7-0.9c0.8-0.4,1.6-0.9,2.4-1.5c0.5-0.4,0.9-0.8,1.3-1.2
		c0.3-0.2,0.5-0.5,0.7-0.8c0.3-0.4,0.6-0.8,0.9-1.2c0.4-0.6,0.8-1.3,1.1-2c0.2-0.6,0.4-1.2,0.7-1.8c0-0.1,0-0.1,0-0.2c0,0,0,0,0,0
		C29.3,20.2,29.1,20.4,28.9,20.5C29,20.5,29,20.5,28.9,20.5z"/>
	<path class="st1" d="M29.9,16c0.3,0.6,0.5,1.3,0.4,1.7c-0.1-1.1-0.6-2-1.4-2.6c-0.9-0.7-1.9-0.9-2.9-0.7c-1.1,0.1-2.6,1.1-2.7,1.8
		c0.2,0,0.4,0,0.6-0.1c0.1-0.1,0.3-0.2,0.4-0.3c0.8-0.6,1.7-0.8,2.7-0.6c0.9,0.2,1.6,0.6,2.1,1.3C30,17.5,30,19,29,20.1
		c-0.2,0.3-0.5,0.5-0.8,0.6c-0.2,0.1-0.4,0.2-0.5,0.4c0.2-0.1,0.4-0.2,0.6-0.3c0.2-0.1,0.4-0.3,0.6-0.4c-0.1,0.1-0.1,0.2-0.2,0.3
		c-0.4,0.4-0.9,0.6-1.4,0.9c-0.1,0-0.1,0.1-0.2,0.2c-0.1,0.1-0.2,0.3-0.3,0.4c-0.2,0.2-0.4,0.3-0.4,0.6c0,0,0,0,0,0
		c-0.4,1.1-1,2.1-2.1,2.8c-0.3,0.2-0.6,0.5-0.8,0.8c-0.4,0.8-1,1.5-1.8,2.1c-0.9,0.6-1.9,0.9-3,0.9c-0.3,0-0.7-0.1-1-0.1
		c-0.1,0-0.2-0.1-0.2-0.1c-0.1,0-0.1-0.1-0.1-0.2c0.1,0,0.1-0.1,0.2-0.1c0.6-0.1,1.3-0.3,2-0.2c-0.1-0.1-0.2-0.1-0.3-0.1
		c-0.2,0-0.4,0-0.6,0c-0.2,0-0.4,0-0.7,0c-0.2,0-0.5,0-0.7-0.1c-0.1,0-0.2,0-0.2,0.2c0,0.1,0,0.2-0.1,0.3c0,0-0.1,0-0.1,0
		c-1.6-0.7-2.8-1.7-3.4-3.3c-0.1-0.3-0.2-0.7-0.3-1.1c0.2,0.1,0.2,0.3,0.3,0.5c0.1,0.6,0.3,1.1,0.6,1.5c0-0.1-0.1-0.2-0.1-0.3
		c-0.2-0.5-0.3-1.1-0.5-1.6c-0.1-0.3-0.3-0.6-0.6-0.8c-0.3-0.2-0.5-0.4-0.7-0.6c0.7-0.9,1.7-1.2,2.7-1.4c-1.2-0.2-2.2,0.2-3.1,0.9
		c-0.4-0.6-0.7-1.2-1.1-1.7c-0.1,0.8,0.1,1.4,0.6,2c0,0,0,0.1,0.1,0.1c0,0-0.1,0-0.1,0c-0.2-0.1-0.3-0.3-0.5-0.4
		c-0.4-0.4-0.7-0.9-0.8-1.5c0,0,0,0,0-0.1c-0.1,0-0.3,0.1-0.4,0.1C9,21.3,8.5,21.4,8,21.4c-0.1,0-0.1,0-0.2,0
		c1.8-0.2,3.3-0.9,4.6-2.1c0.3,0.2,0.5,0.4,0.9,0.5c-0.2-0.3-0.4-0.5-0.5-0.8c0.5-0.4,0.9-0.8,1.5-0.9c0.1,0,0.3-0.1,0.4-0.1
		c0.3-0.1,0.6-0.2,0.9-0.4c0.3-0.2,0.5-0.7,0.4-1c-0.2-0.4-0.4-0.6-0.8-0.8c-0.1-0.1-0.3-0.1-0.4,0c0.2,0.1,0.5,0.2,0.7,0.4
		c0.1,0.1,0.3,0.3,0.3,0.4c0.1,0.3-0.1,0.7-0.5,0.9c-1.1,0.4-2.2,1-3.1,1.7c-1.6,1.2-3.5,1.7-5.6,1.6c-0.6,0-1.2-0.2-1.7-0.7
		c-0.5-0.4-1-0.8-1.6-1.1C3,19,3,18.8,3.1,18.7c0.1-0.1,0.3-0.2,0.4-0.2c0.4-0.1,0.8-0.1,1.2-0.2c0.3-0.1,0.6-0.2,0.9-0.5
		c-0.1,0-0.1,0-0.1,0c-0.1,0-0.3,0-0.4,0c-0.1,0-0.2-0.1-0.3-0.2c-0.1-0.1,0-0.2,0.1-0.2C5.2,17,5.6,16.8,6,16.6
		c0.7-0.4,1.4-0.5,2.2-0.4c0.9,0,1.9,0.1,2.8,0.1c1,0,1.9-0.1,2.8-0.6c0.2-0.1,0.4-0.2,0.7-0.1c0.2,0,0.3,0.1,0.5,0.1
		c0-0.2-0.2-0.4-0.4-0.4c-0.3,0-0.6,0-0.8,0.2c-0.2,0.1-0.3,0.2-0.5,0.2c-1,0.2-2.1,0.2-3.1,0.1c-0.7-0.1-1.4-0.2-2.1-0.3
		c-0.7-0.1-1.4,0-2.1,0.3C5,16,4.4,16.5,3.9,17.2c-0.2,0.4-0.5,0.7-0.8,1c-0.3,0.2-0.4,0.5-0.3,0.8c0,0,0,0,0,0
		c-0.1-0.3,0-0.6,0.2-0.9C3.1,18.1,3.1,18,3.2,18c0.1-0.2,0.3-0.4,0.4-0.6c0.3-0.5,0.6-1,1.1-1.3c0.5-0.4,1.1-0.6,1.8-0.7
		c0.1,0,0.2-0.1,0.2-0.2c0.1-0.2,0.2-0.4,0.4-0.5c0.4-0.4,1-0.7,1.6-0.9c0.5-0.2,1.1-0.3,1.7-0.3c0.3,0,0.7,0,1,0.1
		c0,0.2-0.2,0.2-0.3,0.2c-0.4-0.1-0.8-0.1-1.2,0c-0.8,0-1.6,0.3-2.3,0.7C7.3,14.6,7.1,14.8,7,15c0,0.1,0,0.1,0,0.2
		c0.1,0,0.1,0,0.2,0c0.3-0.1,0.6,0,1,0c0.1,0,0.2,0,0.3,0c0.2-0.1,0.3-0.2,0.5-0.3c0.5-0.3,1.1-0.6,1.6-0.9c0.3-0.1,0.7-0.2,1,0
		c0.2,0.1,0.3,0.1,0.5-0.1c0.1-0.1,0.3-0.2,0.4-0.3c0.7-0.7,1.6-0.8,2.5-0.6c0.1,0,0.2,0,0.3,0c0.3,0,0.5,0,0.8-0.1
		c0.1,0,0.2,0,0.3-0.1c0-0.1,0-0.1,0-0.1c0,0,0,0,0,0c-0.3-0.1-0.7-0.1-1,0c-0.2,0.1-0.3,0.1-0.4,0c-0.1,0-0.2-0.1-0.3-0.1
		c-0.6-0.3-1.3-0.3-1.9-0.2c-0.3,0-0.6,0.2-0.9,0.3c0.1-0.1,0.2-0.2,0.3-0.2c0.4-0.2,0.8-0.3,1.2-0.3c0.6,0,1.2,0,1.7,0.2
		c0.2,0.1,0.3,0.1,0.5,0.2c0,0,0.1,0,0.2,0c0.3-0.2,0.6-0.2,0.9-0.2c0,0,0.1,0,0.1-0.1c0.1-0.2,0.3-0.3,0.5-0.4
		c0.1,0,0.2-0.1,0.2-0.3c-0.1,0-0.1,0-0.2,0c-0.4-0.1-0.8-0.1-1.1-0.4c-0.3-0.2-0.4-0.7-0.2-0.9c0.1-0.2,0.1-0.3-0.1-0.4
		c-0.3-0.1-0.5-0.3-0.5-0.7c0-0.1,0-0.1,0-0.2c0,0,0,0,0,0C14.5,9.1,13.7,9,13,8.9c0,0-0.1,0-0.1,0.1c-0.2,0.3-0.4,0.5-0.8,0.5
		c-0.1,0-0.1,0.1-0.2,0.1c-0.5,0.6-1.3,0.6-1.7,0c0,0-0.1-0.1-0.1-0.1c-0.2,0-0.4-0.1-0.6-0.2c0,0-0.1,0-0.2,0
		C8.7,9.6,8,9.3,7.8,8.6c0,0,0-0.1-0.1-0.1C7.1,8.2,6.9,7.8,6.8,7.2c0-0.1,0.1-0.3,0.1-0.4c0-0.1,0-0.2,0-0.2C6.8,5.9,7,5.2,7.6,4.9
		c0,0,0.1-0.1,0.1-0.1c0.2-0.9,1.2-1.2,1.8-0.6c0,0,0.1,0,0.1,0c0.4,0,0.7,0.1,0.9,0.4c0,0.1,0.1,0.2,0.1,0.2c0,0,0.1,0,0.1-0.1
		c0.4-0.3,0.9-0.3,1.3,0.2c0,0,0.1,0.1,0.2,0.1c0.5,0.1,0.8,0.6,0.7,1.1c0,0,0,0.1,0.1,0.1c0.2,0.1,0.3,0.3,0.4,0.5
		c0,0.1,0.1,0.1,0.1,0.1c0.5,0.2,1,0.4,1.5,0.5c0,0,0.1,0,0.2,0.1c0-0.1-0.1-0.2-0.1-0.3c-0.1-0.4,0.1-0.5,0.4-0.5
		c0.2,0,0.3,0,0.5,0c0,0,0,0,0,0c0,0-0.1,0-0.1-0.1c-0.2-0.2-0.3-0.3-0.5-0.5c-0.4-0.7-0.2-1.5,0.4-2c0,0,0,0,0.1,0
		c-0.1,0.2-0.3,0.3-0.4,0.5c-0.3,0.6-0.1,1.2,0.4,1.5c0,0,0.1,0,0.1,0.1c0,0,0,0,0,0c0-0.1-0.1-0.1-0.1-0.2c-0.7-0.7-0.4-1.7,0.4-2
		c0,0,0.1,0,0.1,0c0,0,0,0,0,0c0,0-0.1,0.1-0.1,0.1c-0.1,0.1-0.2,0.2-0.2,0.3c-0.1,0.4,0.2,0.8,0.7,0.9c0.1,0,0.3,0,0.4,0
		c0,0.1,0,0.1,0,0.2c0.2-0.1,0.5-0.1,0.7-0.2c0,0.1,0,0.1,0,0.2c0.1,0,0.1,0,0.2,0c0.2-0.1,0.4-0.1,0.6,0c0.2,0.1,0.3,0,0.4-0.3
		c-0.2,0-0.4-0.1-0.6-0.1c-0.4,0-0.8,0-1.1,0c-0.2,0-0.3,0-0.5-0.1c-0.5-0.2-0.6-0.6-0.3-1c0,0,0,0,0,0c0-0.1,0.1-0.2,0.1-0.2
		c0-0.1-0.2-0.1-0.2-0.1c-0.1,0-0.2,0.1-0.4,0.1c0,0,0,0,0,0c0.2-0.1,0.3-0.1,0.5-0.2c0.2,0,0.4,0,0.5,0.2c0.1,0.2,0.1,0.3,0,0.5
		c0,0.1-0.1,0.1-0.1,0.2c-0.2,0.2-0.1,0.4,0.1,0.5C17,4.9,17.2,5,17.3,5c0.5,0,0.9,0,1.4,0c0.3,0,0.6,0.1,0.8,0.3
		c0.3-0.1,0.6-0.2,0.9-0.1c0,0,0.1,0,0.1,0C21.1,5,21.8,5,22.3,5.4c0,0,0.1,0,0.2,0c0.5-0.1,1,0,1.4,0.3c0.2,0.1,0.4,0.1,0.6,0
		c0.7,0.1,1.4,0.3,2,0.6c0.4,0.2,0.9,0.3,1.4,0.2c0.3,0,0.4-0.1,0.4-0.5c0-0.2,0-0.4,0.2-0.5c0.2-0.1,0.4,0,0.6,0.1
		c0.3,0.3,0.5,0.6,0.5,1c0,0.4,0,0.8-0.2,1.2c-0.3,0.6-0.9,1-1.6,0.9c-0.1,0-0.1,0-0.2,0c0,0.1,0.1,0.2,0.1,0.3
		c0,0.2-0.1,0.4-0.2,0.5c-0.2,0.3-0.5,0.5-0.8,0.7c-0.6,0.2-1.2,0.3-1.8,0.2c0,0-0.1,0-0.1,0c-0.3,1-0.2,2,0,3c0,0,0,0.1,0.1,0.1
		c0.2,0.2,0.4,0.3,0.5,0.6c0,0,0.1,0,0.1,0c0.6-0.1,1.2-0.2,1.7,0c0.8,0.2,1.5,0.6,2.1,1.2C29.6,15.6,29.7,15.8,29.9,16z M17.2,7.8
		C17.2,7.8,17.2,7.8,17.2,7.8c0.1-0.1,0.2-0.1,0.3,0c0.3,0.1,0.7,0,1-0.1c0.2-0.1,0.4-0.1,0.6-0.2c0.1,0,0.1,0,0.2-0.1
		c0.1-0.1,0.1-0.1,0-0.2c-0.1,0-0.1,0-0.2,0c-0.2,0-0.4,0.1-0.6,0.1c-0.2,0.1-0.4,0.1-0.6,0.2c-0.1-0.3,0-0.5,0.3-0.6
		C18,6.8,18,6.7,17.9,6.7c-0.2-0.1-0.3,0-0.3,0.2c0,0.2,0,0.4,0.1,0.6c0,0,0,0,0,0c-0.3,0-0.7,0.1-1,0.1c-0.1,0-0.2,0-0.3-0.1
		c-0.1-0.1-0.3-0.2-0.4-0.2c-0.2-0.1-0.4,0.1-0.5,0.3c0,0.1,0,0.2,0,0.3c-0.8-0.3-1.6-0.6-2.3-0.9C13,7,13,7,13,6.9
		c0-0.3-0.2-0.4-0.4-0.5c-0.1,0-0.1,0-0.2-0.1c0.2-0.3,0.2-0.5,0.1-0.7c-0.1-0.2-0.3-0.3-0.5-0.4c-0.1,0-0.1,0-0.2-0.1
		c-0.2-0.4-0.6-0.5-0.9-0.2c-0.1,0.1-0.3,0.1-0.4,0.1c0,0,0,0,0,0c-0.2-0.5-0.5-0.6-1-0.5c0,0-0.1,0-0.1-0.1
		C9.1,4.2,8.8,4.1,8.5,4.2C8.2,4.3,8,4.6,7.9,4.9c0,0.1,0,0.1,0,0.2C7.2,5.4,7,6,7.3,6.8C7,7.1,7,7.4,7.1,7.8C7.3,8.2,7.6,8.3,8,8.4
		C7.9,9.1,8.7,9.6,9.3,9.1c0.2,0.3,0.5,0.4,0.9,0.3c0.2,0.4,0.4,0.6,0.8,0.6c0.3,0,0.6-0.2,0.8-0.5c0,0,0.1-0.1,0.1-0.1
		c0.4,0,0.7-0.2,0.8-0.5c0,0,0-0.1,0.1-0.1c0.1,0,0.1,0,0.1,0c0.8,0.1,1.6,0.2,2.4,0.3c0.3,0,0.3,0,0.2,0.3c-0.1,0.2,0,0.5,0.1,0.6
		c0.3,0.2,0.9,0.2,1.2,0c0.2-0.1,0.4-0.1,0.6,0c0.3,0.2,0.5,0.4,0.8,0.5c0.1,0.1,0.3,0.2,0.4,0.3c0.3,0.1,0.3,0.1,0.5-0.1
		c0,0,0-0.1,0.1-0.1c0.1,0,0.1,0,0.2,0c0,0,0.1,0.1,0.1,0.1c0,0,0,0.1,0,0.1c0.2,0,0.2-0.2,0.2-0.3c-0.1-0.3-0.1-0.5-0.2-0.7
		c0-0.1-0.1-0.3,0-0.4c0.1-0.2,0.2-0.4,0.3-0.7c0.1-0.3,0.1-0.4-0.2-0.5c-0.2-0.1-0.5,0-0.7,0c-0.1,0-0.2,0-0.4,0
		C18,8.1,17.7,8,17.4,7.9C17.3,7.9,17.2,7.9,17.2,7.8z M23.9,20.8c0-0.4-0.1-0.7-0.3-1c-0.5-0.9-1.2-1.4-2.2-1.7
		c-1-0.3-2-0.4-3.1-0.3c-0.4,0-0.9,0.1-1.3,0c-0.2,0-0.3,0-0.5,0c-0.2,0-0.3,0.1-0.5,0.1c-0.2,0.1-0.1,0.1,0,0.2
		c0.1,0.1,0.2,0.1,0.3,0.1c0.9,0.3,1.8,0.4,2.7,0.3c0.5,0,1.1-0.1,1.6,0c0.9,0.2,1.6,0.6,2.2,1.2C23.3,20.2,23.6,20.5,23.9,20.8z
		 M14.1,20C14.1,20,14.1,20.1,14.1,20C14.1,20.1,14.1,20.1,14.1,20c1.5,2,3.4,3.3,5.8,3.9c1,0.2,1.9,0.3,2.9,0
		c0.2-0.1,0.4-0.1,0.6-0.2c0,0,0,0,0,0c-0.2,0-0.3,0-0.5,0c0.2-0.1,0.4-0.2,0.5-0.2c0.2-0.1,0.4-0.2,0.5-0.3
		c0.1-0.1,0.2-0.2,0.2-0.3c0,0-0.1-0.1-0.2-0.2c-0.5-0.3-1.1-0.2-1.7,0c0,0-0.1,0.1-0.1,0.1c0,0,0.1,0.1,0.1,0.1c0,0,0.1,0,0.1,0
		c0.3,0,0.7,0.1,1,0.1c0.1,0,0.2,0.1,0.3,0.1c-0.1,0.1-0.2,0.1-0.2,0.1c-0.6,0.4-1.3,0.5-2,0.4c-1.1-0.1-2.1-0.3-3.1-0.7
		c-1.3-0.5-2.4-1.2-3.4-2C14.7,20.5,14.4,20.3,14.1,20z M24.3,7.8c0.1,0,0.1,0,0.1,0c0.5,0,1,0.1,1.5,0.3c0.5,0.2,1.1,0.4,1.6,0.5
		c0.6,0.2,1.2-0.1,1.5-0.7c0.2-0.4,0.2-0.8,0.2-1.2c0-0.3-0.2-0.6-0.4-0.8c-0.1-0.1-0.2-0.1-0.3-0.1c0,0.1-0.1,0.2-0.1,0.2
		c0,0.4-0.2,0.7-0.6,0.7c-0.5,0-1,0-1.5-0.2c-0.4-0.2-0.9-0.4-1.3-0.5c-0.4-0.1-0.7-0.1-1.1-0.1c-0.3,0.1-0.4,0.2-0.4,0.6
		c0.2-0.1,0.3-0.3,0.6-0.3c0,0.1,0,0.1,0,0.2c0.3-0.1,0.5-0.2,0.8-0.1c0,0.1,0,0.2-0.1,0.3c0.2,0,0.4-0.1,0.5-0.1
		c0.2,0,0.3,0.1,0.5,0.1C25.7,7,25.7,7,25.9,6.9c0.1,0,0.3,0,0.4,0.1c0.1,0.1,0.3,0.1,0.4,0.2c0.1,0,0.2,0.1,0.3,0.1
		c0.1,0,0.3,0.1,0.4,0.1c0.5,0.1,0.9-0.2,1-0.6c0.1-0.2,0.1-0.4,0-0.6c0,0,0-0.1,0-0.1c0.1,0,0.1,0,0.2,0c0.1,0.1,0.1,0.1,0.2,0.2
		C29,6.6,29.1,7,29,7.4c-0.2,0.6-0.6,0.9-1.2,0.9c-0.6,0-1.1-0.1-1.6-0.4c-0.7-0.3-1.5-0.3-2.3-0.2c0,0-0.1,0-0.1,0c0,0,0,0.1,0,0.1
		C24,7.9,24,8.1,24,8.2c0,0,0.1,0,0.1,0.1c0.1,0,0.2,0,0.3-0.1C24.5,8,24.4,7.9,24.3,7.8z M27.3,18.6c-0.1,0.2-0.1,0.4-0.1,0.6
		c0,0.5-0.1,0.9-0.2,1.4c-0.3,0.7-0.7,1.4-1.4,1.8c-0.2,0.1-0.5,0.3-0.7,0.4c-0.2,0.1-0.4,0.2-0.6,0.4c-0.1,0-0.1,0.1-0.2,0.2
		c0,0,0,0,0,0c0.1,0,0.1,0,0.2,0c0.8-0.2,1.5-0.4,2.2-0.9c0.5-0.3,0.9-0.8,1.1-1.4C27.7,20.3,27.6,19.5,27.3,18.6z M25.3,16.3
		C25.3,16.3,25.3,16.3,25.3,16.3C25.3,16.2,25.3,16.2,25.3,16.3c-0.5-0.1-0.9-0.1-1.4-0.1c-0.7,0-1.3,0.2-1.9,0.5
		c-0.4,0.2-0.7,0.5-0.9,0.8c-0.1,0.1-0.1,0.2,0.1,0.3c0.2,0.1,0.4,0.1,0.5,0.1c0.1,0,0.2,0,0.3-0.1c0.1-0.1,0.2-0.2,0.2-0.3
		c0.7-0.6,1.5-0.9,2.3-1.1C24.9,16.4,25.1,16.3,25.3,16.3z M21.3,15c-0.7,0-1.3,0-2,0c-0.6,0-1.2,0.1-1.8,0.4
		c-0.2,0.1-0.2,0.2,0,0.4c0.2,0.1,0.3,0.3,0.5,0.4c0.1,0.1,0.3,0.1,0.4,0.1c0.2-0.1,0.3-0.2,0.4-0.4c0.2-0.3,0.4-0.4,0.7-0.4
		c0.3,0,0.6,0,0.9-0.1c0.3,0,0.5-0.1,0.8-0.2C21.3,15.2,21.4,15.2,21.3,15z M13,23.3c0,0.3,0.1,0.4,0.3,0.6c0.3,0.2,0.5,0.5,0.5,0.9
		c0,0.2,0,0.3,0.1,0.5c0,0.3,0.1,0.6,0.2,0.9c0.1,0.2,0.2,0.3,0.4,0.4c-0.1-0.5-0.1-1-0.1-1.5c0-0.5,0.1-1,0.4-1.5
		c-0.3,0.1-0.6,0.1-0.9,0C13.5,23.5,13.3,23.4,13,23.3z M9.8,15.1c-0.1,0-0.2,0-0.3,0c-0.1,0-0.3,0.1-0.4,0.1
		c-0.1,0-0.1,0.1-0.1,0.2c0.1,0,0.1,0.1,0.2,0.1c0.2,0,0.3,0,0.5-0.1c0.5-0.1,0.9-0.1,1.3,0.2c0.1,0.1,0.1,0,0.2,0
		c0.2-0.3,0.4-0.4,0.7-0.6c0.7-0.4,1.5-0.5,2.3-0.5c0.1,0,0.2,0,0.3,0c0.1,0,0.1-0.1,0.2-0.1c-0.1,0-0.1-0.1-0.2-0.1
		c0,0-0.1,0-0.1,0c-1.2-0.2-2.3,0.1-3.2,1.1c-0.1,0.1-0.1,0.1-0.2,0.1C10.6,15.2,10.2,15.1,9.8,15.1z M15.7,15.8
		c0.6,0,1.1,0.2,1.4,0.6c0.2,0.3,0.4,0.6,0.6,0.9c0.1,0.1,0.1,0.2,0.2,0.2c0.1,0,0.1-0.2,0-0.3c-0.1-0.4-0.3-0.8-0.6-1.2
		c-0.5-0.7-1.3-1-2.1-0.7c-0.2,0-0.2,0.1-0.1,0.3C15.3,15.7,15.5,15.8,15.7,15.8z M24.1,10.1C24.1,10.1,24.1,10.1,24.1,10.1
		c-0.1,0.1-0.1,0.1-0.1,0.2c0,0.1,0,0.2-0.1,0.3c-0.3,1.1-1.1,1.8-2.2,1.9c-0.3,0-0.6-0.1-0.9-0.1c-0.1,0-0.2,0-0.3,0
		c0.1,0.1,0.1,0.2,0.2,0.2c0.3,0.1,0.6,0.2,0.9,0.2c0.9,0.1,1.8-0.3,2.1-1.1c0.2-0.5,0.3-0.9,0.4-1.5C24.2,10.2,24.2,10.1,24.1,10.1
		z M20.4,11c-0.3,0-0.5,0-0.8,0c-0.2,0-0.4-0.1-0.7,0c-0.1,0-0.1,0-0.2,0c-0.3-0.1-0.6-0.3-0.8-0.5c-0.4-0.4-0.8-0.5-1.4-0.4
		c-0.1,0-0.1,0.1-0.1,0.2c0,0.2,0.1,0.3,0.3,0.4c0.8,0.4,1.6,0.5,2.5,0.5C19.6,11.2,19.9,11.1,20.4,11z M18.4,11.8
		c-0.1-0.2-0.2-0.3-0.3-0.3c-0.2-0.1-0.4-0.1-0.6-0.2c-0.3-0.1-0.6-0.1-0.9-0.2c-0.1,0-0.2-0.2-0.3-0.3c0,0,0-0.1,0-0.2
		c0.1,0,0.1,0,0.2,0c0.3,0.1,0.5,0.3,0.8,0.3c0.7,0.1,1.3,0.3,2,0.4c0.4,0.1,0.9,0.1,1.3,0c0.3,0,0.6-0.2,0.8-0.4
		c-0.4,0-0.8,0.1-1.2,0.1c-0.9,0.1-1.8,0-2.7-0.3c-0.3-0.1-0.6-0.3-0.9-0.4c-0.1-0.1-0.3-0.1-0.4,0c-0.1,0.1-0.2,0.3-0.1,0.4
		c0.1,0.1,0.2,0.2,0.3,0.3c0.2,0.1,0.3,0.2,0.5,0.2C17.3,11.6,17.9,11.5,18.4,11.8z M22.3,13.4C22.3,13.4,22.3,13.4,22.3,13.4
		c0.1,0,0.2,0,0.3,0c0.4,0,0.7-0.1,1.1-0.1c0.3,0,0.5,0.2,0.8,0.3c0,0,0.1,0.1,0.2,0.1c0-0.1,0-0.1,0-0.2c0,0,0,0,0-0.1
		c-0.1-0.3-0.1-0.7-0.2-1c0-0.5,0-1,0-1.5c0-0.1,0-0.2,0-0.3c0,0,0,0-0.1,0c0,0.1,0,0.2,0,0.3c0,0.2,0,0.4,0,0.6
		c-0.1,0.7-0.4,1.2-1,1.5c-0.2,0.1-0.5,0.2-0.7,0.3C22.5,13.3,22.4,13.3,22.3,13.4z M22.7,27.3C22.7,27.3,22.7,27.3,22.7,27.3
		c0.1,0,0.2-0.1,0.3-0.1c0.1-0.1,0.1-0.2,0.2-0.3c0.3-0.5,0.6-1,1.1-1.3c0.1-0.1,0.2-0.1,0.2-0.2c0.4-0.3,0.7-0.7,1-1.1
		c0,0,0-0.1,0-0.1c0,0-0.1,0-0.1,0c0,0,0,0-0.1,0c-1.2,0.6-2,1.6-2.5,2.8C22.7,27.1,22.7,27.2,22.7,27.3z M19.2,28
		c0-0.3-0.1-0.5-0.2-0.6c-0.1-0.2-0.3-0.2-0.5-0.2c-0.3,0.1-0.6,0-0.9,0c-0.1,0-0.3,0-0.4,0c-0.2,0-0.4,0.1-0.4,0.4
		c0,0.3,0.1,0.6,0.4,0.8c0.2,0.1,0.3,0.1,0.5,0c0.1-0.1,0.1-0.2,0-0.4c-0.1-0.1-0.1-0.3-0.2-0.4c0.3,0,0.7,0,1,0
		c0.3,0,0.5,0,0.6,0.2C19.1,27.8,19.1,27.9,19.2,28z M27.1,9.2C27.1,9.2,27.1,9.3,27.1,9.2c0.1,0.2,0.1,0.3,0,0.4
		c-0.1,0.1-0.2,0.1-0.4,0.2c-0.2,0.1-0.4,0.2-0.6,0.3c-0.5,0.1-0.9,0.2-1.4-0.1c0,0-0.1,0-0.2,0c0,0,0,0,0,0.1
		c0.2,0.1,0.4,0.2,0.6,0.2c0.3,0,0.6,0,0.9,0c0.3,0,0.6-0.1,0.9-0.3c0.2-0.1,0.4-0.3,0.6-0.6c0.1-0.2,0.1-0.4-0.1-0.5
		c0,0-0.1,0-0.1,0c-0.4-0.2-0.9-0.3-1.3-0.5c-0.1,0-0.2-0.1-0.3-0.1c-0.3,0-0.7,0-1,0c-0.1,0-0.2,0.1-0.2,0.1c0,0.1,0.1,0.2,0.2,0.2
		c0-0.1,0-0.1,0-0.2c0.1,0,0.3,0,0.4,0c0.4,0,0.9,0,1.3,0.4C26.5,8.9,26.7,9,26.9,9c0.2,0,0.3,0.1,0.4,0.2c0,0,0,0,0,0
		C27.3,9.2,27.2,9.2,27.1,9.2z M21.8,5.7c0.9-0.2,1.3-0.1,1.7,0.4c0,0,0.1,0,0.1-0.1c0,0,0.1-0.1,0.1-0.1c0.1-0.1,0.1-0.1,0-0.2
		c-0.4-0.2-0.8-0.4-1.2-0.3c-0.1,0-0.3,0-0.4-0.1c-0.5-0.4-1.1-0.4-1.7-0.2c-0.1,0-0.2,0-0.3,0c-0.4,0-0.7,0.1-1,0.3
		C19,5.7,19,5.8,18.9,5.9c0,0,0,0,0,0c0.1-0.1,0.3-0.2,0.4-0.3c0.2-0.1,0.3-0.1,0.5-0.1c0,0.1-0.1,0.2-0.1,0.2
		c0.4-0.1,0.4-0.1,0.6-0.3c0.3-0.3,0.9-0.3,1.2-0.1C21.7,5.5,21.8,5.6,21.8,5.7z M17,26.1c-0.1-0.6-0.2-1.2-0.3-1.7
		c0-0.1-0.1-0.2-0.1-0.3c0-0.1-0.1-0.1-0.2-0.1c-0.1,0-0.1,0.1-0.1,0.1c0,0,0,0.1,0,0.1c0,0.3,0,0.7,0,1c0,0.4,0.1,0.7,0.4,1
		c0.1,0.1,0.2,0.1,0.3,0.1C17,26.3,17,26.2,17,26.1z M25.4,23.5C25.4,23.5,25.4,23.5,25.4,23.5c-0.1,0-0.1,0-0.2,0
		c-0.5,0.3-1,0.4-1.6,0.3c-0.2,0-0.3,0-0.5,0c0,0-0.1,0.1-0.1,0.1c0,0.1-0.1,0.3-0.1,0.4c0.1,0,0.2,0,0.2,0c0.4,0,0.7-0.1,1.1-0.1
		c0.4,0,0.7-0.2,1-0.5C25.3,23.7,25.3,23.6,25.4,23.5z M15.5,24.9c0,0.4,0.1,0.8,0.3,1.1c0,0.1,0.1,0.1,0.2,0.1c0-0.1,0-0.2,0-0.2
		C15.9,25.3,16,24.7,16,24c0-0.1,0-0.3-0.1-0.3c-0.1,0-0.2,0.1-0.3,0.2C15.6,24.2,15.5,24.5,15.5,24.9z M19.1,14.6
		C19.1,14.6,19.1,14.6,19.1,14.6c0.1,0.1,0.2,0.1,0.3,0.1c0.6-0.2,1.1-0.2,1.7-0.2c0.4,0,0.7-0.1,1.1-0.1c0.1,0,0.2-0.1,0.3-0.2
		c0,0,0,0,0-0.1c-0.1,0-0.2,0-0.2,0c-0.2,0-0.3,0.1-0.5,0.1c-0.3,0-0.7,0-1,0c-0.5,0-1,0.1-1.5,0.3C19.2,14.5,19.1,14.6,19.1,14.6z
		 M17.5,11.6C17.5,11.6,17.4,11.7,17.5,11.6C17.4,11.7,17.4,11.7,17.5,11.6c-0.1,0.4-0.3,0.5-0.6,0.6c-0.2,0.1-0.3,0.2-0.4,0.4
		c-0.1,0.2-0.1,0.4,0.1,0.5c0,0,0.1,0.1,0.1,0c0,0,0.1-0.1,0.1-0.1c0-0.1,0-0.1,0-0.2c0-0.1,0-0.3,0.2-0.3c0.2,0,0.2,0.1,0.3,0.2
		c0.1,0.1,0.1,0.2,0.2,0.2c0,0,0.1,0,0.1,0c0,0,0-0.1,0.1-0.1c0-0.1,0-0.2-0.1-0.3c-0.1-0.1-0.2-0.2-0.1-0.3
		C17.6,12.1,17.5,11.9,17.5,11.6z M24.2,13.8c-0.1,0-0.2,0-0.3,0.1c-0.1,0-0.1,0.1-0.2,0.2c0.1,0,0.1,0.1,0.2,0.1
		c0.2,0,0.4,0.1,0.5,0.2c0.2,0.2,0.2,0.2,0.5,0.1c0,0,0.1,0,0.1,0c0.1,0,0.2-0.1,0.2-0.1c0-0.1-0.1-0.2-0.1-0.2
		C24.8,13.9,24.5,13.8,24.2,13.8z M22.5,10.3c-0.4,0.4-0.8,0.4-1.3,0.3c-0.2,0-0.4,0-0.6,0c-0.3,0.1-0.5,0.1-0.7,0
		c-0.1,0-0.1,0-0.2,0c-0.1,0-0.2,0-0.2,0.1c0,0,0,0.1,0,0.1c0,0,0,0,0.1,0c0.3,0,0.6,0.1,0.9,0c0.4-0.1,0.9-0.1,1.3,0
		c0.2,0.1,0.4,0,0.6-0.1C22.5,10.7,22.6,10.6,22.5,10.3z M17.7,14.5C17.7,14.5,17.7,14.5,17.7,14.5c0-0.1,0-0.1,0-0.2
		c-0.1-0.2-0.2-0.2-0.4-0.3c-0.4-0.1-0.7-0.3-0.9-0.5c-0.1-0.1-0.2-0.2-0.3-0.2c-0.1,0-0.1,0-0.2,0c0,0.1,0,0.2,0,0.2
		c0.4,0.4,0.7,0.7,1.3,0.7C17.4,14.2,17.5,14.3,17.7,14.5C17.7,14.5,17.7,14.5,17.7,14.5z M21.5,26.7C21.5,26.7,21.5,26.7,21.5,26.7
		c0.1,0.1,0.1,0.1,0.2,0.1c0.4-0.1,0.7-0.3,0.9-0.7c0-0.1,0-0.2,0-0.3c-0.1-0.1-0.2-0.1-0.3,0c-0.1,0-0.2,0.1-0.2,0.2
		c-0.1,0.1-0.1,0.2-0.1,0.3C21.8,26.4,21.7,26.6,21.5,26.7C21.5,26.6,21.5,26.7,21.5,26.7z M22.4,8.1c0.2-0.1,0.3-0.2,0.3-0.3
		c0-0.1-0.1-0.2-0.1-0.4c-0.1-0.2-0.2-0.3-0.5-0.2c-0.2,0.1-0.4,0.2-0.6,0.2c-0.1,0.1-0.2,0.1-0.2,0.3c0,0.2,0.1,0.3,0.3,0.3
		c-0.1-0.2,0-0.4,0.2-0.5c0.2-0.1,0.3-0.1,0.5,0C22.5,7.6,22.5,7.8,22.4,8.1z M26.9,7.8C27,7.9,27,7.9,26.9,7.8
		c0.4,0.2,0.8,0.4,1.2,0.3c0.4-0.1,0.7-0.6,0.7-0.9c-0.1,0.1-0.1,0.1-0.1,0.2c-0.2,0.3-0.5,0.4-0.8,0.4c-0.2,0-0.5,0-0.7,0
		C27.1,7.8,27,7.8,26.9,7.8z M23.2,10.1c0-0.4-0.2-0.7-0.6-0.7c-0.2,0-0.3,0.1-0.5,0.1c-0.1,0-0.1,0.1-0.1,0.2
		c0.1,0,0.1,0.1,0.2,0.1c0.4,0,0.6,0,0.7,0.4c0,0,0,0.1,0.1,0.1c0,0,0.1,0,0.1,0.1C23.2,10.3,23.2,10.2,23.2,10.1
		C23.2,10.2,23.2,10.1,23.2,10.1z M17.2,7C17.2,6.9,17.2,6.9,17.2,7c0.1-0.5,0.2-0.7,0.6-0.7c0.3,0,0.5,0,0.8,0c0,0,0.1,0,0.1,0
		c0,0,0-0.1,0-0.1c0,0-0.1-0.1-0.2-0.1c-0.2,0-0.5,0-0.7,0c-0.3,0-0.5,0.2-0.6,0.4C17.1,6.6,17.1,6.8,17.2,7z M17,6.8
		c-0.2-0.2-0.4-0.2-0.7-0.2c-0.4,0.1-0.8,0.2-1.2,0.1C15,6.8,15,6.8,15,6.9c0,0.1,0.1,0.3,0.2,0.4c0,0,0.1,0.1,0.2,0.1
		c0.1,0,0.1-0.1,0-0.2c0-0.1-0.1-0.1-0.1-0.2c0.2,0,0.3,0,0.4,0C16.1,6.9,16.5,6.7,17,6.8C16.9,6.8,16.9,6.8,17,6.8z M23.1,25.4
		c0.2,0,0.4-0.1,0.5-0.3c0-0.1,0.1-0.2,0-0.2c0-0.1-0.1-0.1-0.2-0.1c0,0-0.1,0-0.1,0c-0.2,0.1-0.4,0.2-0.5,0.3c0,0-0.1,0.1-0.1,0.1
		c0,0,0,0.1,0.1,0.1C22.9,25.4,23,25.4,23.1,25.4z M16.3,27.8c0-0.1,0-0.3-0.1-0.4c0-0.1-0.1-0.1-0.2-0.1c-0.2,0.2-0.1,0.7,0.1,0.8
		c0.1,0.1,0.1,0,0.1-0.1C16.3,28,16.3,27.9,16.3,27.8z M21.9,8.7c0.3,0.3,1,0.3,1.2-0.1C22.7,8.9,22.3,9,21.9,8.7z M24.4,9.2
		c0.2-0.3,0.5-0.5,0.8-0.7C24.9,8.6,24.5,8.9,24.4,9.2z M22.1,7.8c0.1-0.1,0.1-0.1,0.1-0.2c0,0-0.1-0.1-0.1-0.1c0,0-0.1,0.1-0.1,0.1
		C22,7.7,22.1,7.7,22.1,7.8z"/>
	<path class="st2" d="M8,21.4c0.5,0,0.9-0.1,1.4-0.2c0.1,0,0.3-0.1,0.4-0.1c0,0,0,0,0,0.1c0.1,0.6,0.4,1.1,0.8,1.5
		c0.1,0.2,0.3,0.3,0.5,0.4c0,0,0.1,0,0.1,0c0.4,0.3,0.8,0.6,1.2,0.9c0.2,0.2,0.4,0.4,0.7,0.6c0,0,0,0,0,0l0,0
		c0.1,0.4,0.1,0.7,0.3,1.1c0.6,1.6,1.8,2.7,3.4,3.3c0,0,0.1,0,0.1,0c0,0,0,0.1,0.1,0.1c0.2,0.1,0.5,0.1,0.7,0.2c0.3,0,0.7,0.1,1,0.1
		c1.1,0,2.1-0.3,3-0.9c0.8-0.5,1.3-1.2,1.8-2.1c0.2-0.3,0.5-0.6,0.8-0.8c1.1-0.7,1.7-1.7,2.1-2.8c0,0,0,0,0,0
		c0.1-0.3,0.2-0.5,0.4-0.6c0.1-0.1,0.2-0.3,0.3-0.4c0.1-0.1,0.1-0.1,0.2-0.2c0.5-0.2,1-0.5,1.4-0.9c0.1-0.1,0.1-0.2,0.2-0.3
		c0,0,0,0,0,0c0,0,0,0,0.1-0.1c0.1-0.1,0.3-0.2,0.4-0.3c0,0,0,0,0,0c0,0.1,0,0.1,0,0.2c-0.2,0.6-0.4,1.2-0.7,1.8
		c-0.3,0.7-0.7,1.4-1.1,2c-0.3,0.4-0.6,0.8-0.9,1.2c-0.2,0.3-0.4,0.5-0.7,0.8c-0.4,0.4-0.9,0.8-1.3,1.2c-0.7,0.6-1.5,1.1-2.4,1.5
		c-0.9,0.4-1.8,0.7-2.7,0.9c-0.5,0.1-0.9,0.2-1.4,0.2c-0.8,0.1-1.6,0.1-2.5,0.1c-0.9,0-1.8-0.2-2.7-0.4c-0.7-0.2-1.4-0.4-2-0.7
		c-0.9-0.4-1.7-0.9-2.4-1.4c-0.4-0.3-0.7-0.6-1.1-0.9c-0.2-0.2-0.4-0.4-0.6-0.6c-0.3-0.4-0.7-0.8-1-1.2c-0.6-0.7-1-1.4-1.4-2.2
		c-0.4-0.9-0.8-1.8-1-2.7c0,0,0.1,0,0.1,0.1c0.1,0.1,0.3,0.3,0.4,0.4c0.2,0.2,0.4,0.4,0.7,0.6C5.8,21.4,6.9,21.5,8,21.4z"/>
	<path class="st2" d="M6.8,7.2c0,0.6,0.3,1,0.9,1.2c0,0,0.1,0.1,0.1,0.1C8,9.3,8.7,9.6,9.3,9.4c0,0,0.1,0,0.2,0
		c0.2,0.1,0.4,0.2,0.6,0.2c0.1,0,0.1,0,0.1,0.1c0.5,0.6,1.3,0.6,1.7,0c0-0.1,0.1-0.1,0.2-0.1c0.3-0.1,0.6-0.2,0.8-0.5
		c0,0,0.1-0.1,0.1-0.1c0.7,0.1,1.4,0.2,2.2,0.2c0,0,0,0,0,0c0,0.1,0,0.1,0,0.2c0,0.4,0.1,0.6,0.5,0.7c0.2,0.1,0.2,0.2,0.1,0.4
		c-0.2,0.3-0.1,0.7,0.2,0.9c0.3,0.3,0.7,0.3,1.1,0.4c0.1,0,0.1,0,0.2,0c0,0.1-0.1,0.2-0.2,0.3c-0.2,0.1-0.4,0.2-0.5,0.4
		c0,0-0.1,0.1-0.1,0.1c-0.3,0-0.6,0-0.9,0.2c0,0-0.1,0-0.2,0c-0.2-0.1-0.3-0.1-0.5-0.2c-0.6-0.2-1.1-0.2-1.7-0.2
		c-0.4,0-0.8,0.1-1.2,0.3c-0.1,0.1-0.2,0.1-0.3,0.2c0,0,0,0,0,0c0,0,0,0,0,0c-0.1,0.1-0.2,0.3-0.2,0.4c0,0.1-0.1,0.1-0.1,0.2
		c-0.3-0.1-0.6-0.1-1-0.1c-0.6,0-1.1,0.1-1.7,0.3c-0.6,0.2-1.1,0.4-1.6,0.9c-0.2,0.1-0.3,0.3-0.4,0.5c-0.1,0.1-0.1,0.2-0.2,0.2
		c-0.7,0.1-1.3,0.3-1.8,0.7c-0.5,0.4-0.8,0.8-1.1,1.3c-0.1,0.2-0.3,0.4-0.4,0.6c-0.1-0.7-0.1-1.3-0.1-2c0-0.4,0.1-0.9,0.1-1.3
		c0.1-0.6,0.2-1.1,0.3-1.7c0.2-0.6,0.4-1.2,0.6-1.7c0.2-0.4,0.4-0.8,0.6-1.2c0.3-0.6,0.7-1.2,1.1-1.7c0.3-0.3,0.6-0.7,0.9-1
		C6.7,7.3,6.8,7.2,6.8,7.2z"/>
	<path class="st3" d="M24.5,5.7c-0.2,0-0.4,0.1-0.6,0c-0.4-0.3-0.9-0.4-1.4-0.3c0,0-0.1,0-0.2,0C21.8,5,21.1,5,20.4,5.1
		c0,0-0.1,0-0.1,0c-0.3,0-0.6,0-0.9,0.1C19.2,5.1,18.9,5,18.7,5c-0.5,0-0.9,0-1.4,0c-0.1,0-0.3,0-0.4-0.1c-0.2-0.1-0.3-0.3-0.1-0.5
		c0-0.1,0.1-0.1,0.1-0.2c0.1-0.2,0.1-0.3,0-0.5c-0.1-0.2-0.3-0.2-0.5-0.2c-0.2,0-0.3,0.1-0.5,0.2c-0.1,0.1-0.2,0.2-0.3,0.2
		c-0.6,0.5-0.8,1.3-0.4,2c0.1,0.2,0.3,0.3,0.5,0.5c0,0,0.1,0,0.1,0.1c0,0,0,0,0,0c-0.2,0-0.3,0-0.5,0c-0.4,0-0.5,0.2-0.4,0.5
		c0,0.1,0.1,0.2,0.1,0.3c-0.1,0-0.1,0-0.2-0.1c-0.5-0.2-1-0.4-1.5-0.5c-0.1,0-0.1-0.1-0.1-0.1c-0.1-0.2-0.2-0.4-0.4-0.5
		c0,0-0.1-0.1-0.1-0.1c0.1-0.5-0.2-0.9-0.7-1.1c-0.1,0-0.1,0-0.2-0.1c-0.3-0.4-0.8-0.5-1.3-0.2c0,0,0,0-0.1,0.1
		c0-0.1-0.1-0.2-0.1-0.2c0.5-0.2,1-0.4,1.4-0.6c0.7-0.3,1.4-0.4,2.1-0.6c0.3-0.1,0.7-0.1,1-0.1c0.7,0,1.3-0.1,2-0.1
		c0.5,0,1.1,0.1,1.6,0.2c0.7,0.1,1.4,0.3,2.1,0.5c1,0.3,1.9,0.8,2.8,1.3C23.9,5.3,24.2,5.5,24.5,5.7C24.4,5.7,24.4,5.7,24.5,5.7z"/>
	<path class="st2" d="M29.9,16c-0.2-0.2-0.3-0.4-0.5-0.6c-0.6-0.6-1.3-1-2.1-1.2c-0.6-0.1-1.2-0.1-1.7,0c0,0-0.1,0-0.1,0
		c-0.1-0.3-0.3-0.5-0.5-0.6c0,0-0.1-0.1-0.1-0.1c-0.3-1-0.3-2,0-3c0,0,0.1,0,0.1,0c0.6,0.1,1.2,0.1,1.8-0.2c0.3-0.1,0.6-0.4,0.8-0.7
		c0.1-0.2,0.2-0.3,0.2-0.5c0.1,0.2,0.3,0.4,0.4,0.6c0.4,0.8,0.8,1.6,1.1,2.5c0.2,0.7,0.4,1.3,0.5,2c0,0.4,0.1,0.7,0.1,1.1
		C29.9,15.7,29.9,15.9,29.9,16z"/>
	<path class="st4" d="M8,21.4c-1.2,0.2-2.3,0.1-3.3-0.5c-0.3-0.2-0.5-0.4-0.7-0.6c-0.1-0.1-0.3-0.3-0.4-0.4c0,0-0.1,0-0.1-0.1
		c-0.1-0.1-0.2-0.1-0.3-0.2C3,19.4,2.8,19.3,2.8,19c0,0,0,0,0,0c0.1,0.1,0.2,0.3,0.3,0.3c0.4,0.2,0.8,0.5,1.1,0.8
		C4.6,20.5,5,20.8,5.4,21c0.8,0.3,1.6,0.4,2.4,0.4C7.9,21.3,8,21.4,8,21.4z"/>
	<path class="st1" d="M29,20.5C29,20.5,29,20.5,29,20.5C29,20.5,29,20.5,29,20.5z"/>
	<path class="st5" d="M17.2,7.8c0.1,0,0.1,0.1,0.2,0.1C17.7,8,18,8.1,18.3,8.2c0.1,0,0.2,0,0.4,0c0.2-0.1,0.5-0.1,0.7,0
		c0.3,0.1,0.4,0.2,0.2,0.5c-0.1,0.2-0.2,0.4-0.3,0.7c-0.1,0.1,0,0.3,0,0.4c0.1,0.2,0.2,0.5,0.2,0.7c0,0.1,0,0.2-0.2,0.3
		c0-0.1,0-0.1,0-0.1c0-0.1,0-0.1-0.1-0.1c0,0-0.1,0-0.2,0c0,0,0,0-0.1,0.1c-0.2,0.2-0.3,0.2-0.5,0.1c-0.2-0.1-0.3-0.2-0.4-0.3
		c-0.3-0.2-0.5-0.4-0.8-0.5c-0.2-0.1-0.4-0.1-0.6,0c-0.3,0.2-0.9,0.2-1.2,0c-0.1-0.1-0.2-0.3-0.1-0.6C15.5,9,15.5,9,15.2,9
		c-0.8-0.1-1.6-0.2-2.4-0.3c0,0-0.1,0-0.1,0c0,0,0,0.1-0.1,0.1c-0.1,0.3-0.4,0.5-0.8,0.5c0,0-0.1,0-0.1,0.1
		c-0.2,0.3-0.4,0.5-0.8,0.5c-0.3,0-0.6-0.2-0.8-0.6c-0.3,0.1-0.6,0-0.9-0.3C8.7,9.6,7.9,9.1,8,8.4c-0.4,0-0.7-0.2-0.9-0.6
		C7,7.4,7,7.1,7.3,6.8C7,6,7.2,5.4,7.9,5.1c0-0.1,0-0.1,0-0.2C8,4.6,8.2,4.3,8.5,4.2c0.3-0.1,0.6,0,0.8,0.2c0,0,0.1,0.1,0.1,0.1
		c0.5-0.1,0.8,0.1,1,0.5c0,0,0,0,0,0c0.2,0,0.3,0,0.4-0.1c0.3-0.3,0.7-0.2,0.9,0.2c0,0.1,0.1,0.1,0.2,0.1c0.2,0,0.4,0.1,0.5,0.4
		c0.1,0.2,0.1,0.4-0.1,0.7c0.1,0,0.1,0,0.2,0.1c0.2,0.1,0.4,0.3,0.4,0.5C13,7,13,7,13,7.1c0.8,0.3,1.6,0.6,2.3,0.9
		c0-0.1,0-0.2,0-0.3c0-0.3,0.2-0.4,0.5-0.3c0.2,0,0.3,0.1,0.4,0.2c0.1,0.1,0.2,0.1,0.3,0.1c0.3,0,0.7-0.1,1-0.1c0,0,0,0,0,0
		c0-0.2-0.1-0.4-0.1-0.6c0-0.2,0.2-0.3,0.3-0.2c0.1,0,0.1,0.1,0.2,0.1c-0.2,0.1-0.3,0.3-0.3,0.6c0.2-0.1,0.4-0.1,0.6-0.2
		c0.2-0.1,0.4-0.1,0.6-0.1c0.1,0,0.1,0,0.2,0c0.1,0,0.1,0.1,0,0.2c-0.1,0-0.1,0.1-0.2,0.1c-0.2,0.1-0.4,0.1-0.6,0.2
		c-0.3,0.2-0.6,0.2-1,0.1C17.4,7.8,17.3,7.8,17.2,7.8C17.2,7.8,17.2,7.8,17.2,7.8z M12,6.6c0,0,0.1-0.1,0.1-0.1
		c0.2-0.1,0.2-0.3,0.1-0.4c-0.1-0.2-0.2-0.3-0.3-0.4c-0.1,0-0.1-0.1-0.2-0.1c0-0.1,0.1-0.2,0.1-0.2c-0.2-0.3-0.6-0.4-0.9-0.2
		c0.4,0.1,0.6,0.3,0.6,0.7c0,0.3-0.3,0.5-0.6,0.6c0,0,0,0.1,0.1,0.1c0.1,0,0.1,0,0.1,0c0.3-0.1,0.6,0,0.8,0.3c0.2,0.2,0.2,0.5,0,0.7
		C11.6,7.8,11.3,8,11,8.2c-0.1,0.1-0.2,0-0.4,0.1c-0.1,0.5,0.4,0.9,0.9,0.8c0,0,0.1-0.1,0.1-0.1c0.1-0.1,0.2-0.3,0.3-0.4
		c0.1-0.1,0.1-0.1,0.1-0.2c0-0.2-0.1-0.4-0.3-0.5c0.1-0.1,0.1-0.1,0.2-0.2c0.1-0.1,0.2-0.1,0.2,0c0.1,0.2,0.2,0.3,0.2,0.5
		c0.1-0.3,0.1-0.5-0.2-0.8c0,0,0.1-0.1,0.1-0.1c0.2-0.1,0.1-0.2,0.1-0.3C12.4,6.9,12.2,6.7,12,6.6z M9.2,4.6c-0.3,0.2-0.7,0.3-1.1,0
		c0,0.1,0,0.3,0,0.4c0,0.1,0.1,0.2,0.1,0.4C7.8,5.5,7.5,5.6,7.4,6c-0.1,0.2-0.1,0.5,0,0.7c0.2-0.1,0.3-0.2,0.5-0.3
		c0-0.2,0-0.4,0.2-0.6c0.2-0.2,0.4-0.2,0.6-0.2c0,0,0,0,0,0C8.5,5.6,8.4,5.5,8.3,5.5C8.3,5,8.8,4.7,9.2,5C9.3,5,9.4,5.1,9.3,5.2
		C9.2,5.3,9.1,5.5,9,5.6c0,0.1,0.1,0.1,0.2,0.2c0,0,0.1,0,0.1,0c0.2-0.1,0.5-0.1,0.7,0C10,5.7,10,5.6,10.1,5.5
		c0.1-0.1,0.2-0.2,0.3-0.3c0-0.1-0.1-0.1-0.1-0.2C10,5.1,9.7,5,9.5,4.7C9.4,4.7,9.3,4.7,9.2,4.6z M18.6,8.7c-0.1,0-0.2,0-0.2,0.2
		c0,0.1,0,0.1,0.1,0.2c0.1,0.1,0.1,0.2,0,0.3c-0.1,0.1-0.1,0.1-0.2,0.2c-0.1,0.1-0.1,0.2,0.1,0.3c0.1,0.1,0.2,0,0.3-0.1
		c0.1-0.1,0.2-0.2,0.1-0.4c-0.1-0.2-0.1-0.3,0.1-0.4c0.1,0,0.1-0.1,0.2-0.1c0.1-0.1,0.1-0.2,0.1-0.3c0,0-0.1,0-0.1-0.1
		c0,0,0,0.1-0.1,0.1C19,8.7,18.9,8.8,18.6,8.7C18.6,8.7,18.6,8.7,18.6,8.7z M15.9,7.8c-0.2,0.1-0.2,0.2-0.1,0.3
		c0.2,0.2,0.2,0.4,0.2,0.7c0,0.1,0,0.1,0,0.2c0,0.1,0.1,0.2,0.2,0.2c0.1,0,0.2,0,0.2-0.1c0.1-0.2,0-0.4-0.1-0.5
		c-0.1-0.1-0.1-0.2,0-0.3c0,0,0.1-0.1,0.1-0.2c0,0-0.1-0.1-0.2-0.1c-0.1,0-0.2-0.1-0.2-0.2C15.9,7.9,15.9,7.9,15.9,7.8z M14.4,8.6
		C14.4,8.6,14.4,8.6,14.4,8.6c-0.2-0.1-0.4-0.2-0.6-0.2c0,0,0,0,0,0c0.3,0,0.6,0.1,0.9,0.1c0,0,0,0,0,0c-0.5-0.1-1-0.3-1.4-0.4
		c-0.1,0.1-0.2,0.2-0.3,0.3C13.4,8.5,13.9,8.6,14.4,8.6z M9.3,8C8.9,8.1,8.6,8.1,8.3,7.8c0,0.3,0.2,0.6,0.5,0.6C9,8.4,9.3,8.2,9.3,8
		z M10.3,9.3c0.1,0.3,0.2,0.4,0.5,0.5c0.2,0.1,0.5,0,0.6-0.1c-0.4,0-0.7-0.2-0.9-0.5C10.5,9.2,10.4,9.2,10.3,9.3z M7.5,7.1
		C7.1,7.4,7.2,7.9,7.4,8c0.1-0.2,0.2-0.4,0.3-0.7C7.6,7.3,7.6,7.2,7.5,7.1z M9,9.2C8.5,9.1,8.3,8.8,8.3,8.3C8.3,8.3,8.2,8.4,8.2,8.4
		C8.1,8.9,8.5,9.3,9,9.2z M9.2,8.7C9.4,9,10,9,10.2,8.7C9.9,8.7,9.7,8.6,9.4,8.6c0,0,0,0,0,0C9.4,8.6,9.3,8.6,9.2,8.7z M13.3,7.7
		C13.2,7.7,13.2,7.7,13.3,7.7c0,0.1,0.1,0.1,0.1,0.2c0.1,0,0.3,0.1,0.4,0.1C13.9,8,14,8,14.2,8.1c0,0,0,0,0,0
		C13.9,7.9,13.6,7.8,13.3,7.7z"/>
	<path class="st6" d="M7.8,21.3c-0.8,0-1.6-0.1-2.4-0.4c-0.5-0.2-0.9-0.4-1.2-0.8c-0.3-0.3-0.7-0.6-1.1-0.8C3,19.3,2.9,19.2,2.8,19
		c-0.1-0.3,0.1-0.6,0.3-0.8c0.3-0.3,0.6-0.7,0.8-1C4.4,16.5,5,16,5.7,15.7c0.7-0.3,1.4-0.3,2.1-0.3c0.7,0.1,1.4,0.2,2.1,0.3
		c1.1,0.1,2.1,0.1,3.1-0.1c0.2,0,0.4-0.1,0.5-0.2c0.3-0.1,0.5-0.2,0.8-0.2c0.2,0,0.4,0.2,0.4,0.4c-0.2,0-0.3-0.1-0.5-0.1
		c-0.2,0-0.5,0-0.7,0.1c-0.9,0.5-1.8,0.6-2.8,0.6c-0.9,0-1.9-0.1-2.8-0.1c-0.8,0-1.5,0.1-2.2,0.4c-0.4,0.2-0.7,0.5-1.1,0.8
		c-0.1,0.1-0.2,0.1-0.1,0.2c0.1,0.1,0.2,0.2,0.3,0.2c0.1,0,0.3,0,0.4,0c0,0,0.1,0,0.1,0c-0.3,0.2-0.6,0.4-0.9,0.5
		c-0.4,0.1-0.8,0.1-1.2,0.2c-0.1,0-0.3,0.1-0.4,0.2C3,18.8,3,19,3.2,19.1c0.6,0.3,1.1,0.7,1.6,1.1c0.5,0.4,1.1,0.6,1.7,0.7
		c2,0.1,3.9-0.4,5.6-1.6c1-0.7,2-1.3,3.1-1.7c0.4-0.1,0.7-0.5,0.5-0.9c-0.1-0.2-0.2-0.3-0.3-0.4c-0.2-0.2-0.5-0.3-0.7-0.4
		c0.1-0.1,0.3-0.1,0.4,0c0.4,0.1,0.7,0.4,0.8,0.8c0.1,0.3,0,0.8-0.4,1c-0.3,0.2-0.6,0.3-0.9,0.4c-0.1,0-0.2,0.1-0.4,0.1
		c-0.6,0.1-1.1,0.5-1.5,0.9c0.2,0.3,0.3,0.5,0.5,0.8c-0.3-0.1-0.6-0.3-0.9-0.5C11.1,20.4,9.6,21.2,7.8,21.3z"/>
	<path class="st5" d="M23.9,20.8c-0.3-0.3-0.6-0.7-0.9-1c-0.6-0.6-1.4-1-2.2-1.2c-0.5-0.1-1.1-0.1-1.6,0c-0.9,0.1-1.8,0-2.7-0.3
		c-0.1,0-0.2-0.1-0.3-0.1c-0.2-0.1-0.2-0.1,0-0.2c0.1-0.1,0.3-0.1,0.5-0.1c0.1,0,0.3,0,0.5,0c0.5,0.1,0.9,0,1.3,0
		c1-0.1,2.1,0,3.1,0.3c0.9,0.3,1.7,0.8,2.2,1.7C23.8,20.1,23.9,20.5,23.9,20.8z"/>
	<path class="st6" d="M11.3,13.6c0-0.1,0-0.2,0.1-0.2c0.1-0.2,0.2-0.3,0.2-0.4c0,0,0,0,0,0c0,0,0,0,0,0c0.3-0.1,0.6-0.2,0.9-0.3
		c0.7-0.1,1.3-0.1,1.9,0.2c0.1,0,0.2,0.1,0.3,0.1c0.2,0.1,0.3,0,0.4,0c0.3-0.2,0.6-0.1,1,0c0,0,0,0,0,0c0,0,0,0,0,0.1
		c-0.1,0-0.2,0-0.3,0.1c-0.3,0-0.5,0-0.8,0.1c-0.1,0-0.2,0-0.3,0c-0.9-0.2-1.8-0.1-2.5,0.6c-0.1,0.1-0.3,0.2-0.4,0.3
		c-0.1,0.1-0.3,0.1-0.5,0.1c-0.3-0.2-0.7-0.1-1,0c-0.6,0.2-1.1,0.5-1.6,0.9c-0.2,0.1-0.3,0.2-0.5,0.3c-0.1,0-0.2,0.1-0.3,0
		c-0.3,0-0.6-0.1-1,0c-0.1,0-0.1,0-0.2,0c0-0.1,0-0.1,0-0.2c0.1-0.2,0.3-0.4,0.6-0.6C8.2,14,9,13.8,9.8,13.7c0.4,0,0.8-0.1,1.2,0
		C11.2,13.8,11.3,13.8,11.3,13.6z"/>
	<path class="st7" d="M14.1,20c0.3,0.3,0.6,0.5,0.9,0.8c1,0.9,2.1,1.6,3.4,2c1,0.4,2,0.6,3.1,0.7c0.7,0,1.4-0.1,2-0.4
		c0.1,0,0.1-0.1,0.2-0.1c-0.1-0.1-0.2-0.1-0.3-0.1c-0.3,0-0.7-0.1-1-0.1c0,0-0.1,0-0.1,0c0,0-0.1,0-0.1-0.1c0,0,0-0.1,0.1-0.1
		c0.6-0.2,1.1-0.2,1.7,0c0.1,0,0.2,0.1,0.2,0.2c0,0.1-0.1,0.2-0.2,0.3c-0.2,0.1-0.4,0.2-0.5,0.3c-0.2,0.1-0.4,0.2-0.5,0.2
		c0.2,0,0.3,0,0.5,0c0,0,0,0,0,0c-0.2,0.1-0.4,0.2-0.6,0.2c-1,0.3-1.9,0.3-2.9,0C17.5,23.3,15.6,22,14.1,20
		C14.1,20.1,14.1,20.1,14.1,20C14.1,20.1,14.1,20,14.1,20z"/>
	<path class="st8" d="M24.3,7.8c0.1,0.1,0.2,0.1,0.1,0.3c-0.1,0.1-0.2,0.2-0.3,0.1c0,0-0.1,0-0.1-0.1c0-0.1-0.1-0.3-0.2-0.3
		c0,0,0-0.1,0-0.1c0,0,0,0,0.1,0c0.8-0.1,1.5-0.1,2.3,0.2c0.5,0.2,1,0.4,1.6,0.4c0.6,0,1-0.3,1.2-0.9c0.1-0.4,0-0.8-0.1-1.2
		c0-0.1-0.1-0.1-0.2-0.2c0,0-0.1,0-0.2,0c0,0,0,0.1,0,0.1c0.1,0.2,0,0.4,0,0.6c-0.1,0.4-0.5,0.8-1,0.6c-0.1,0-0.3-0.1-0.4-0.1
		c-0.1,0-0.2-0.1-0.3-0.1c-0.1,0-0.3-0.1-0.4-0.2c-0.1-0.1-0.3-0.1-0.4-0.1c-0.2,0-0.3,0-0.2-0.2c-0.2,0-0.3-0.1-0.5-0.1
		c-0.2,0-0.3,0-0.5,0.1c0-0.1,0.1-0.2,0.1-0.3c-0.3-0.1-0.5,0-0.8,0.1c0-0.1,0-0.2,0-0.2c-0.3,0-0.4,0.2-0.6,0.3
		c0-0.3,0.1-0.5,0.4-0.6c0.4-0.1,0.7-0.1,1.1,0.1c0.4,0.2,0.9,0.3,1.3,0.5c0.5,0.2,1,0.3,1.5,0.2c0.4,0,0.6-0.3,0.6-0.7
		c0-0.1,0-0.2,0.1-0.2c0.1,0,0.2,0,0.3,0.1c0.2,0.2,0.4,0.5,0.4,0.8c0.1,0.4,0,0.8-0.2,1.2c-0.3,0.6-0.8,0.8-1.5,0.7
		c-0.5-0.1-1.1-0.3-1.6-0.5c-0.5-0.2-1-0.2-1.5-0.3C24.4,7.8,24.4,7.8,24.3,7.8z"/>
	<path class="st9" d="M13.1,24.6c-0.2-0.2-0.4-0.5-0.7-0.6c-0.4-0.3-0.8-0.6-1.2-0.9c0,0,0-0.1-0.1-0.1c-0.5-0.5-0.7-1.2-0.6-2
		c0.4,0.6,0.7,1.2,1.1,1.7c0.9-0.7,1.9-1.1,3.1-0.9c-1,0.3-2,0.6-2.7,1.4c0.3,0.2,0.5,0.4,0.7,0.6c0.3,0.2,0.5,0.5,0.6,0.8
		c0.2,0.5,0.3,1.1,0.5,1.6c0,0.1,0.1,0.2,0.1,0.3c-0.3-0.5-0.5-1-0.6-1.5C13.4,24.9,13.3,24.8,13.1,24.6
		C13.1,24.7,13.1,24.7,13.1,24.6C13.1,24.6,13.1,24.6,13.1,24.6z"/>
	<path class="st6" d="M27.3,18.6c0.3,0.8,0.4,1.6,0.1,2.4c-0.2,0.6-0.6,1-1.1,1.4c-0.7,0.5-1.4,0.7-2.2,0.9c-0.1,0-0.1,0-0.2,0
		c0,0,0,0,0,0c0.1-0.1,0.1-0.1,0.2-0.2c0.2-0.1,0.4-0.2,0.6-0.4c0.2-0.1,0.5-0.3,0.7-0.4c0.7-0.4,1.1-1.1,1.4-1.8
		c0.2-0.4,0.3-0.9,0.2-1.4C27.2,19.1,27.2,18.9,27.3,18.6z"/>
	<path class="st6" d="M25.3,16.3c-0.2,0-0.4,0.1-0.7,0.1c-0.8,0.2-1.6,0.5-2.3,1.1c-0.1,0.1-0.2,0.2-0.2,0.3
		c-0.1,0.1-0.2,0.1-0.3,0.1c-0.2,0-0.4-0.1-0.5-0.1c-0.2,0-0.2-0.1-0.1-0.3c0.3-0.3,0.6-0.6,0.9-0.8c0.6-0.3,1.2-0.5,1.9-0.5
		C24.4,16.2,24.8,16.2,25.3,16.3C25.3,16.2,25.3,16.2,25.3,16.3C25.3,16.3,25.3,16.3,25.3,16.3z"/>
	<path class="st5" d="M21.3,15c0,0.2,0,0.2-0.1,0.2c-0.3,0.1-0.5,0.1-0.8,0.2c-0.3,0-0.6,0-0.9,0.1c-0.3,0-0.5,0.1-0.7,0.4
		c-0.1,0.2-0.2,0.3-0.4,0.4c-0.2,0.1-0.3,0-0.4-0.1c-0.2-0.1-0.3-0.3-0.5-0.4c-0.2-0.1-0.2-0.3,0-0.4c0.6-0.3,1.2-0.4,1.8-0.4
		C20,15,20.6,15,21.3,15z"/>
	<path class="st6" d="M13,23.3c0.3,0.1,0.6,0.2,0.9,0.3c0.3,0.1,0.6,0.1,0.9,0c-0.3,0.5-0.4,1-0.4,1.5c0,0.5,0.1,1,0.1,1.5
		c-0.2-0.1-0.3-0.2-0.4-0.4c-0.2-0.3-0.2-0.6-0.2-0.9c0-0.2,0-0.3-0.1-0.5c0-0.4-0.2-0.7-0.5-0.9C13.1,23.7,12.9,23.5,13,23.3z"/>
	<path class="st10" d="M16.1,3.8c0.1,0,0.2-0.1,0.4-0.1c0.1,0,0.2,0,0.2,0.1c0,0.1,0,0.2-0.1,0.2c0,0,0,0,0,0
		c-0.4,0.4-0.3,0.8,0.3,1c0.2,0,0.3,0.1,0.5,0.1c0.4,0,0.8,0,1.1,0c0.2,0,0.4,0.1,0.6,0.1c-0.1,0.2-0.2,0.3-0.4,0.3
		c-0.2-0.1-0.4-0.1-0.6,0c-0.1,0-0.1,0-0.2,0c0-0.1,0-0.1,0-0.2c-0.2,0.1-0.5,0.1-0.7,0.2c0-0.1,0-0.1,0-0.2c-0.1,0-0.3,0-0.4,0
		c-0.5-0.1-0.8-0.5-0.7-0.9c0-0.1,0.1-0.2,0.2-0.3c0,0,0.1-0.1,0.1-0.1c0,0,0,0,0,0c0,0-0.1,0-0.1,0c-0.8,0.3-1.1,1.3-0.4,2
		c0,0,0.1,0.1,0.1,0.2c0,0,0,0,0,0c0,0-0.1,0-0.1-0.1c-0.5-0.3-0.7-1-0.4-1.5c0.1-0.2,0.3-0.3,0.4-0.5C15.9,4,16,3.9,16.1,3.8z"/>
	<path class="st11" d="M9.8,15.1c0.4,0,0.7,0,1,0.2c0.1,0.1,0.2,0,0.2-0.1c0.8-1,2-1.2,3.2-1.1c0,0,0.1,0,0.1,0
		c0.1,0,0.1,0.1,0.2,0.1c-0.1,0.1-0.1,0.1-0.2,0.1c-0.1,0-0.2,0-0.3,0c-0.8-0.1-1.6,0.1-2.3,0.5c-0.3,0.1-0.5,0.3-0.7,0.6
		c0,0.1-0.1,0.1-0.2,0c-0.4-0.3-0.9-0.3-1.3-0.2c-0.2,0-0.3,0.1-0.5,0.1c-0.1,0-0.1,0-0.2-0.1c0-0.1,0.1-0.1,0.1-0.2
		c0.1-0.1,0.3-0.1,0.4-0.1C9.7,15.1,9.7,15.1,9.8,15.1z"/>
	<path class="st6" d="M15.7,15.8c-0.2,0.1-0.4,0-0.5-0.3c-0.1-0.1-0.1-0.2,0.1-0.3c0.8-0.2,1.6,0,2.1,0.7c0.3,0.4,0.5,0.8,0.6,1.2
		c0,0.1,0.1,0.2,0,0.3c-0.1,0-0.2-0.1-0.2-0.2c-0.2-0.3-0.3-0.6-0.6-0.9C16.8,15.9,16.3,15.7,15.7,15.8z"/>
	<path class="st11" d="M24.1,10.1c0,0.1,0,0.1,0,0.2c0,0.5-0.1,1-0.4,1.5c-0.4,0.7-1.3,1.2-2.1,1.1c-0.3,0-0.6-0.1-0.9-0.2
		c-0.1,0-0.1-0.1-0.2-0.2c0.1,0,0.2,0,0.3,0c0.3,0,0.6,0.1,0.9,0.1c1.1-0.1,1.9-0.8,2.2-1.9c0-0.1,0-0.2,0.1-0.3
		C24,10.2,24.1,10.1,24.1,10.1C24.1,10.1,24.1,10.1,24.1,10.1z"/>
	<path class="st7" d="M20.4,11c-0.4,0.1-0.8,0.2-1.2,0.2c-0.9,0-1.7-0.2-2.5-0.5c-0.2-0.1-0.3-0.2-0.3-0.4c0-0.1,0-0.1,0.1-0.2
		c0.5-0.2,1,0,1.4,0.4c0.2,0.2,0.5,0.4,0.8,0.5c0.1,0,0.1,0,0.2,0c0.2-0.1,0.5,0,0.7,0C19.8,11,20.1,11,20.4,11z"/>
	<path class="st12" d="M18.4,11.8c-0.5-0.3-1.1-0.3-1.7-0.4c-0.2,0-0.4-0.1-0.5-0.2C16.1,11.2,16,11,16,10.9c-0.1-0.1,0-0.3,0.1-0.4
		c0.1-0.1,0.3-0.1,0.4,0c0.3,0.2,0.6,0.3,0.9,0.4c0.9,0.3,1.8,0.3,2.7,0.3c0.4,0,0.8-0.1,1.2-0.1c-0.2,0.2-0.5,0.4-0.8,0.4
		c-0.4,0-0.9,0-1.3,0c-0.7-0.1-1.3-0.2-2-0.4c-0.3-0.1-0.5-0.2-0.8-0.3c0,0-0.1,0-0.2,0c0,0.1,0,0.1,0,0.2c0.1,0.1,0.2,0.2,0.3,0.3
		c0.3,0.1,0.6,0.1,0.9,0.2c0.2,0,0.4,0.1,0.6,0.2C18.3,11.6,18.4,11.7,18.4,11.8z"/>
	<path class="st7" d="M22.3,13.4c0.1,0,0.1-0.1,0.2-0.1c0.2-0.1,0.5-0.2,0.7-0.3c0.6-0.3,0.9-0.9,1-1.5c0-0.2,0-0.4,0-0.6
		c0-0.1,0-0.2,0-0.3c0,0,0,0,0.1,0c0,0.1,0,0.2,0,0.3c0,0.5,0,1,0,1.5c0,0.3,0.1,0.7,0.2,1c0,0,0,0,0,0.1c0,0.1,0,0.1,0,0.2
		c-0.1,0-0.1-0.1-0.2-0.1c-0.2-0.2-0.5-0.3-0.8-0.3c-0.4,0-0.7,0.1-1.1,0.1C22.5,13.4,22.4,13.4,22.3,13.4
		C22.3,13.4,22.3,13.4,22.3,13.4z"/>
	<path class="st7" d="M22.7,27.3c0-0.1,0.1-0.2,0.1-0.3c0.6-1.2,1.4-2.1,2.5-2.8c0,0,0,0,0.1,0c0,0,0.1,0,0.1,0c0,0,0,0.1,0,0.1
		c-0.3,0.4-0.6,0.8-1,1.1c-0.1,0.1-0.1,0.1-0.2,0.2c-0.5,0.3-0.9,0.8-1.1,1.3C23.1,27,23,27.1,23,27.2
		C22.9,27.2,22.8,27.3,22.7,27.3C22.7,27.3,22.7,27.3,22.7,27.3z"/>
	<path class="st11" d="M19.2,28c-0.1-0.1-0.1-0.2-0.2-0.3c-0.2-0.2-0.4-0.3-0.6-0.2c-0.3,0-0.6,0-1,0c0.1,0.1,0.1,0.3,0.2,0.4
		c0.1,0.2,0.1,0.3,0,0.4c-0.1,0.1-0.3,0.1-0.5,0c-0.3-0.2-0.4-0.5-0.4-0.8c0-0.2,0.1-0.4,0.4-0.4c0.1,0,0.3,0,0.4,0
		c0.3,0,0.6,0.1,0.9,0c0.2-0.1,0.4,0,0.5,0.2C19.2,27.5,19.3,27.7,19.2,28z"/>
	<path class="st10" d="M27.1,9.2c0.1,0,0.2,0,0.3,0c0,0,0,0,0,0C27.3,9.1,27.1,9,26.9,9c-0.3,0-0.5-0.1-0.7-0.2
		c-0.4-0.3-0.8-0.3-1.3-0.4c-0.1,0-0.3,0-0.4,0c0,0.1,0,0.1,0,0.2c-0.1,0-0.2-0.1-0.2-0.2c0,0,0.1-0.1,0.2-0.1c0.3,0,0.7,0,1,0
		c0.1,0,0.2,0,0.3,0.1c0.4,0.2,0.9,0.3,1.3,0.5c0,0,0.1,0,0.1,0c0.2,0.1,0.3,0.3,0.1,0.5C27.4,9.6,27.2,9.8,27,10
		c-0.3,0.2-0.5,0.3-0.9,0.3c-0.3,0-0.6,0-0.9,0c-0.2,0-0.4-0.1-0.6-0.2c0,0,0,0,0-0.1c0.1,0,0.1,0,0.2,0c0.4,0.3,0.9,0.2,1.4,0.1
		c0.2,0,0.4-0.2,0.6-0.3c0.1-0.1,0.2-0.1,0.4-0.2C27.3,9.5,27.3,9.4,27.1,9.2C27.1,9.3,27.1,9.2,27.1,9.2z"/>
	<path class="st8" d="M21.8,5.7c0-0.1-0.1-0.2-0.1-0.3c-0.4-0.3-0.9-0.2-1.2,0.1c-0.2,0.2-0.2,0.2-0.6,0.3c0-0.1,0.1-0.2,0.1-0.2
		c-0.2-0.1-0.4,0-0.5,0.1c-0.2,0.1-0.3,0.2-0.4,0.3c0,0,0,0,0,0C19,5.8,19,5.7,19.1,5.6c0.3-0.3,0.6-0.3,1-0.3c0.1,0,0.2,0,0.3,0
		c0.6-0.1,1.2-0.1,1.7,0.2c0.1,0.1,0.2,0.1,0.4,0.1c0.5-0.1,0.8,0.1,1.2,0.3c0.1,0.1,0.1,0.1,0,0.2c0,0-0.1,0.1-0.1,0.1
		c0,0-0.1,0-0.1,0.1C23.1,5.7,22.7,5.6,21.8,5.7z"/>
	<path class="st5" d="M17,26.1c0,0.1-0.1,0.2-0.1,0.3c-0.1,0-0.2-0.1-0.3-0.1c-0.3-0.3-0.4-0.6-0.4-1c0-0.3,0-0.7,0-1
		c0,0,0-0.1,0-0.1c0-0.1,0.1-0.1,0.1-0.1c0.1,0,0.2,0,0.2,0.1c0.1,0.1,0.1,0.2,0.1,0.3C16.8,24.9,16.9,25.5,17,26.1z"/>
	<path class="st11" d="M25.4,23.5c-0.1,0.1-0.1,0.2-0.2,0.3c-0.3,0.3-0.6,0.4-1,0.5c-0.4,0-0.7,0.1-1.1,0.1c-0.1,0-0.2,0-0.2,0
		c0-0.2,0-0.3,0.1-0.4c0,0,0.1-0.1,0.1-0.1c0.2,0,0.3,0,0.5,0c0.6,0.1,1.1,0,1.6-0.3C25.3,23.5,25.3,23.5,25.4,23.5
		C25.4,23.5,25.4,23.5,25.4,23.5z"/>
	<path class="st11" d="M15.5,24.9c0-0.4,0-0.7,0.2-1c0.1-0.1,0.1-0.2,0.3-0.2c0,0,0.1,0.2,0.1,0.3c-0.1,0.6-0.1,1.3,0.1,1.9
		c0,0.1,0,0.2,0,0.2c-0.1,0-0.2-0.1-0.2-0.1C15.6,25.7,15.5,25.3,15.5,24.9z"/>
	<path class="st8" d="M19.1,14.6c0,0,0.1-0.1,0.1-0.1c0.5-0.2,1-0.3,1.5-0.3c0.3,0,0.7,0,1,0c0.2,0,0.3-0.1,0.5-0.1
		c0.1,0,0.2,0,0.2,0c0,0,0,0,0,0.1c-0.1,0.1-0.2,0.1-0.3,0.2c-0.4,0.1-0.7,0.1-1.1,0.1c-0.6,0-1.2,0-1.7,0.2
		C19.3,14.7,19.2,14.6,19.1,14.6C19.1,14.6,19.1,14.6,19.1,14.6z"/>
	<path class="st8" d="M17.5,11.6c0,0.2,0.1,0.4-0.1,0.6c-0.1,0.1,0,0.3,0.1,0.3c0.1,0.1,0.1,0.2,0.1,0.3c0,0,0,0.1-0.1,0.1
		c0,0-0.1,0-0.1,0c-0.1-0.1-0.1-0.2-0.2-0.2c-0.1-0.1-0.1-0.2-0.3-0.2c-0.2,0-0.2,0.2-0.2,0.3c0,0.1,0,0.1,0,0.2c0,0,0,0.1-0.1,0.1
		c0,0-0.1,0-0.1,0c-0.1-0.2-0.1-0.3-0.1-0.5c0.1-0.2,0.2-0.3,0.4-0.4C17.2,12.2,17.4,12,17.5,11.6C17.4,11.7,17.4,11.7,17.5,11.6
		C17.4,11.7,17.5,11.6,17.5,11.6z"/>
	<path class="st12" d="M17.7,29.4c-0.2-0.1-0.5-0.1-0.7-0.2c0,0,0-0.1-0.1-0.1c0-0.1,0.1-0.2,0.1-0.3c0-0.2,0.1-0.2,0.2-0.2
		c0.2,0,0.5,0.1,0.7,0.1c0.2,0,0.4,0,0.7,0c0.2,0,0.4,0,0.6,0c0.1,0,0.2,0.1,0.3,0.1c-0.7-0.1-1.3,0.1-2,0.2c-0.1,0-0.1,0.1-0.2,0.1
		c0,0.1,0.1,0.1,0.1,0.2C17.5,29.3,17.6,29.3,17.7,29.4z"/>
	<path class="st7" d="M24.2,13.8c0.3,0,0.6,0.1,0.9,0.3c0.1,0,0.1,0.1,0.1,0.2c0,0-0.1,0.1-0.2,0.1c0,0-0.1,0-0.1,0
		c-0.3,0.1-0.3,0.1-0.5-0.1c-0.1-0.2-0.3-0.2-0.5-0.2c-0.1,0-0.1-0.1-0.2-0.1c0.1-0.1,0.1-0.2,0.2-0.2C24,13.8,24.1,13.8,24.2,13.8z
		"/>
	<path class="st13" d="M22.5,10.3c0,0.2,0,0.4-0.2,0.5c-0.2,0.1-0.4,0.1-0.6,0.1c-0.4-0.1-0.9-0.1-1.3,0c-0.3,0-0.6,0-0.9,0
		c0,0-0.1,0-0.1,0c0,0,0-0.1,0-0.1c0.1,0,0.2-0.1,0.2-0.1c0.1,0,0.1,0,0.2,0c0.3,0.1,0.5,0.1,0.7,0c0.2,0,0.4-0.1,0.6,0
		C21.8,10.7,22.2,10.8,22.5,10.3z"/>
	<path class="st12" d="M17.7,14.5C17.7,14.5,17.7,14.5,17.7,14.5c-0.2-0.2-0.3-0.3-0.5-0.3c-0.6,0-0.9-0.4-1.3-0.7c0,0,0-0.1,0-0.2
		c0.1,0,0.2,0,0.2,0c0.1,0.1,0.2,0.2,0.3,0.2c0.3,0.3,0.6,0.4,0.9,0.5c0.2,0,0.3,0.1,0.4,0.3C17.7,14.4,17.7,14.5,17.7,14.5
		C17.7,14.5,17.7,14.5,17.7,14.5z"/>
	<path class="st7" d="M21.5,26.7C21.5,26.7,21.5,26.6,21.5,26.7c0.3-0.1,0.4-0.3,0.4-0.4c0-0.1,0.1-0.2,0.1-0.3
		c0-0.1,0.1-0.2,0.2-0.2c0.1,0,0.2,0,0.3,0c0.1,0,0.1,0.2,0,0.3c-0.2,0.4-0.5,0.6-0.9,0.7C21.6,26.8,21.5,26.8,21.5,26.7
		C21.5,26.7,21.5,26.7,21.5,26.7z"/>
	<path class="st8" d="M22.4,8.1c0-0.2,0-0.4-0.2-0.6c-0.2-0.1-0.3-0.1-0.5,0c-0.2,0.1-0.3,0.3-0.2,0.5c-0.2-0.1-0.3-0.2-0.3-0.3
		c0-0.2,0.1-0.2,0.2-0.3c0.2-0.1,0.4-0.2,0.6-0.2c0.2-0.1,0.4-0.1,0.5,0.2c0.1,0.1,0.1,0.2,0.1,0.4C22.7,7.9,22.6,8,22.4,8.1z"/>
	<path class="st10" d="M26.9,7.8c0.1,0,0.2,0,0.2,0c0.2,0,0.5,0,0.7,0c0.3,0,0.6-0.2,0.8-0.4c0-0.1,0.1-0.1,0.1-0.2
		c0,0.4-0.3,0.8-0.7,0.9C27.7,8.2,27.3,8.1,26.9,7.8C27,7.9,27,7.9,26.9,7.8z"/>
	<path class="st7" d="M23.2,10.1C23.2,10.1,23.2,10.2,23.2,10.1c0,0.1,0,0.2-0.1,0.2c0,0-0.1,0-0.1-0.1c0,0,0-0.1-0.1-0.1
		c-0.2-0.3-0.4-0.4-0.7-0.4c-0.1,0-0.1,0-0.2-0.1c0-0.1,0.1-0.2,0.1-0.2c0.1-0.1,0.3-0.1,0.5-0.1C23,9.4,23.2,9.7,23.2,10.1z"/>
	<path class="st13" d="M17.2,7c-0.1-0.2-0.1-0.4,0-0.5c0.1-0.3,0.3-0.4,0.6-0.4c0.2,0,0.5,0,0.7,0c0.1,0,0.1,0,0.2,0.1
		c0,0,0,0.1,0,0.1c0,0-0.1,0-0.1,0c-0.3,0-0.5,0-0.8,0C17.4,6.3,17.2,6.5,17.2,7C17.2,6.9,17.2,6.9,17.2,7z"/>
	<path class="st13" d="M17,6.8C16.9,6.8,16.9,6.8,17,6.8c-0.5-0.1-0.9,0.1-1.3,0.1c-0.1,0-0.3,0-0.4,0c0,0.1,0.1,0.1,0.1,0.2
		c0.1,0.1,0,0.2,0,0.2c0,0-0.1,0-0.2-0.1C15.1,7.2,15,7,15,6.9c0-0.1,0-0.1,0.1-0.1c0.4,0,0.8-0.1,1.2-0.1C16.5,6.6,16.8,6.6,17,6.8
		z"/>
	<path class="st8" d="M23.1,25.4c-0.1,0-0.2,0-0.3-0.1c0,0-0.1-0.1-0.1-0.1c0,0,0-0.1,0.1-0.1c0.2-0.1,0.4-0.2,0.5-0.3
		c0,0,0.1,0,0.1,0c0.1,0,0.2,0,0.2,0.1c0,0.1,0,0.2,0,0.2C23.5,25.3,23.3,25.4,23.1,25.4z"/>
	<path class="st10" d="M16.3,27.8c0,0.1,0,0.2,0,0.3c0,0.1-0.1,0.1-0.1,0.1c-0.2-0.1-0.3-0.7-0.1-0.8c0.1-0.1,0.1,0,0.2,0.1
		C16.3,27.5,16.3,27.7,16.3,27.8z"/>
	<path class="st14" d="M21.9,8.7c0.4,0.2,0.8,0.2,1.2-0.1C22.8,9,22.1,9,21.9,8.7z"/>
	<path class="st14" d="M24.4,9.2c0-0.3,0.5-0.6,0.8-0.7C25,8.7,24.6,8.9,24.4,9.2z"/>
	<path class="st13" d="M22.1,7.8c0-0.1-0.1-0.1-0.1-0.2c0,0,0.1-0.1,0.1-0.1c0,0,0.1,0.1,0.1,0.1C22.2,7.7,22.2,7.8,22.1,7.8z"/>
	<path class="st15" d="M16.1,3.8C16,3.9,15.9,4,15.8,4c0,0,0,0-0.1,0C15.8,3.9,15.9,3.9,16.1,3.8C16.1,3.8,16.1,3.8,16.1,3.8z"/>
	<path class="st1" d="M13.1,24.6C13.1,24.6,13.1,24.6,13.1,24.6C13.1,24.6,13.1,24.6,13.1,24.6z"/>
	<path class="st1" d="M11.6,12.9C11.6,12.9,11.6,12.9,11.6,12.9C11.6,12.9,11.6,12.9,11.6,12.9z"/>
	<path class="st16" d="M12,6.6c0.2,0.1,0.4,0.2,0.5,0.5c0,0.1,0.1,0.2-0.1,0.3c0,0-0.1,0-0.1,0.1c0.2,0.2,0.3,0.5,0.2,0.8
		c-0.1-0.2-0.2-0.3-0.2-0.5c-0.1-0.1-0.1-0.1-0.2,0c-0.1,0.1-0.1,0.1-0.2,0.2C11.9,8,12,8.2,12.1,8.4c0,0.1,0,0.1-0.1,0.2
		c-0.1,0.1-0.2,0.2-0.3,0.4c0,0-0.1,0.1-0.1,0.1c-0.5,0.2-1-0.3-0.9-0.8c0.1,0,0.3,0,0.4-0.1c0.3-0.2,0.6-0.4,0.8-0.7
		c0.2-0.2,0.1-0.5,0-0.7c-0.2-0.2-0.5-0.3-0.8-0.3c0,0-0.1,0-0.1,0c0,0,0-0.1-0.1-0.1c0.3-0.1,0.6-0.3,0.6-0.6
		c0-0.4-0.2-0.6-0.6-0.7c0.3-0.2,0.7-0.1,0.9,0.2c0,0.1-0.1,0.1-0.1,0.2c0.1,0,0.2,0.1,0.2,0.1c0.2,0.1,0.3,0.2,0.3,0.4
		c0.1,0.2,0.1,0.3-0.1,0.4C12,6.6,12,6.6,12,6.6z"/>
	<path class="st16" d="M9.2,4.6c0.1,0,0.2,0,0.3,0C9.7,5,10,5.1,10.3,5c0,0.1,0.1,0.1,0.1,0.2c-0.1,0.1-0.2,0.2-0.3,0.3
		C10,5.6,10,5.7,9.9,5.8c-0.2-0.1-0.4-0.1-0.7,0c0,0-0.1,0-0.1,0C9.1,5.8,9,5.7,9,5.6c0.1-0.2,0.2-0.3,0.3-0.4C9.4,5.1,9.3,5,9.2,5
		c-0.4-0.2-0.9,0-1,0.5c0.1,0.1,0.3,0.1,0.4,0.2c0,0,0,0,0,0c-0.2,0-0.4,0-0.6,0.2C7.9,6,7.8,6.2,7.9,6.4C7.7,6.5,7.6,6.6,7.4,6.7
		C7.3,6.5,7.2,6.2,7.4,6c0.2-0.4,0.5-0.5,0.8-0.5c0-0.1-0.1-0.2-0.1-0.4c0-0.1,0-0.3,0-0.4C8.5,4.9,8.8,4.9,9.2,4.6z"/>
	<path class="st17" d="M18.6,8.7C18.6,8.7,18.6,8.7,18.6,8.7c0.3,0,0.4,0,0.4-0.2c0,0,0-0.1,0.1-0.1c0,0,0.1,0,0.1,0.1
		c0,0.1,0,0.3-0.1,0.3c-0.1,0-0.1,0.1-0.2,0.1c-0.2,0.1-0.2,0.2-0.1,0.4c0.1,0.2,0,0.3-0.1,0.4c-0.1,0.1-0.2,0.1-0.3,0.1
		c-0.1-0.1-0.2-0.1-0.1-0.3c0-0.1,0.1-0.1,0.2-0.2c0.1-0.1,0.1-0.2,0-0.3c0,0-0.1-0.1-0.1-0.2C18.4,8.7,18.5,8.7,18.6,8.7z"/>
	<path class="st18" d="M15.9,7.8c0,0.1,0,0.1,0,0.1c0,0.1,0.1,0.2,0.2,0.2c0.1,0,0.1,0,0.2,0.1c0,0,0,0.1-0.1,0.2
		c-0.1,0.1-0.1,0.2,0,0.3c0.2,0.1,0.2,0.3,0.1,0.5c0,0-0.1,0.1-0.2,0.1c-0.1,0-0.2-0.1-0.2-0.2c0-0.1,0-0.1,0-0.2
		c0.1-0.3,0-0.5-0.2-0.7C15.6,8,15.7,7.9,15.9,7.8z"/>
	<path class="st19" d="M14.4,8.6c-0.5-0.1-0.9-0.2-1.4-0.2c0.1-0.1,0.2-0.2,0.3-0.3c0.5,0.1,1,0.3,1.4,0.4c0,0,0,0,0,0
		c-0.3,0-0.6-0.1-0.9-0.1c0,0,0,0,0,0C14,8.5,14.2,8.5,14.4,8.6C14.4,8.6,14.4,8.6,14.4,8.6z"/>
	<path class="st18" d="M9.3,8c0,0.2-0.3,0.4-0.6,0.4c-0.3,0-0.5-0.3-0.5-0.6C8.6,8.1,8.9,8.1,9.3,8z"/>
	<path class="st18" d="M10.3,9.3c0.1,0,0.2-0.1,0.2-0.1c0.2,0.4,0.5,0.5,0.9,0.5c-0.1,0.1-0.4,0.2-0.6,0.1
		C10.5,9.7,10.4,9.5,10.3,9.3z"/>
	<path class="st18" d="M7.5,7.1c0.1,0.1,0.2,0.2,0.2,0.3C7.6,7.6,7.5,7.8,7.4,8C7.2,7.9,7.1,7.4,7.5,7.1z"/>
	<path class="st18" d="M9,9.2C8.5,9.3,8.1,8.9,8.2,8.4c0-0.1,0.1-0.1,0.1-0.2C8.3,8.8,8.5,9.1,9,9.2z"/>
	<path class="st18" d="M9.2,8.7c0.1,0,0.2-0.1,0.2-0.1c0,0,0,0,0,0c0.2,0.1,0.5,0.1,0.7,0.2C10,9,9.4,9,9.2,8.7z"/>
	<path class="st15" d="M13.3,7.7c0.3,0.1,0.6,0.2,0.9,0.3c0,0,0,0,0,0C14,8,13.9,8,13.8,8c-0.1,0-0.3-0.1-0.4-0.1
		C13.3,7.8,13.3,7.8,13.3,7.7C13.2,7.7,13.2,7.7,13.3,7.7z"/>
</g>
</svg>
