<?xml version="1.0" encoding="utf-8"?>
<!-- Generator: Adobe Illustrator 27.0.0, SVG Export Plug-In . SVG Version: 6.00 Build 0)  -->
<svg version="1.1" id="Camada_1" xmlns="http://www.w3.org/2000/svg" xmlns:xlink="http://www.w3.org/1999/xlink" x="0px" y="0px"
	 viewBox="0 0 246 74" style="enable-background:new 0 0 246 74;" xml:space="preserve">
<style type="text/css">
	.st0{fill:#023019;}
	.st1{fill:#FFFFFF;}
	.st2{fill:#F4F6FF;}
</style>
<g>
	<path class="st0" d="M179.9,37c0,2.3-0.8,4.3-2.5,6s-3.6,2.5-6,2.5h-6.3c-0.4,0-0.6,0.2-0.6,0.6v11c0,0.6-0.3,0.9-0.9,0.9h-7.2
		c-0.6,0-0.9-0.3-0.9-0.9V21.4c0-0.6,0.3-0.9,0.9-0.9h15c2.3,0,4.3,0.8,6,2.5s2.5,3.6,2.5,6V37z M164.6,28.2v9.4
		c0,0.4,0.2,0.6,0.6,0.6h4c1.2,0,1.7-0.6,1.7-1.7v-7.1c0-1.2-0.6-1.7-1.7-1.7h-4C164.8,27.6,164.6,27.8,164.6,28.2z"/>
	<path class="st0" d="M183.6,49.5v-28c0-0.6,0.3-0.9,0.9-0.9h20.6c0.6,0,0.9,0.3,0.9,0.9v5.7c0,0.6-0.3,0.9-0.9,0.9h-12
		c-0.4,0-0.6,0.2-0.6,0.6V35c0,0.4,0.2,0.6,0.6,0.6h10c0.6,0,0.9,0.3,0.9,0.9v5.7c0,0.6-0.3,0.9-0.9,0.9h-10c-0.4,0-0.6,0.2-0.6,0.6
		v3.6c0,2.2,1.1,3.2,3.2,3.2h9.9c0.6,0,0.9,0.3,0.9,0.9V57c0,0.6-0.3,0.9-0.9,0.9h-13.7c-2.3,0-4.3-0.8-6-2.5S183.6,51.8,183.6,49.5
		z"/>
	<path class="st0" d="M230.1,42.8V21.4c0-0.6,0.3-0.9,0.9-0.9h7.2c0.6,0,0.9,0.3,0.9,0.9V57c0,0.6-0.3,0.9-0.9,0.9h-10.3
		c-0.6,0-1-0.3-1.2-0.9l-7.3-21.5V57c0,0.6-0.3,0.9-0.9,0.9h-7.2c-0.6,0-0.9-0.3-0.9-0.9V21.4c0-0.6,0.3-0.9,0.9-0.9h10.4
		c0.6,0,1,0.3,1.2,0.9L230.1,42.8z"/>
</g>
<g>
	<path class="st0" d="M30.5,19.4c2.3,0,4.3,0.8,6,2.5s2.5,3.6,2.5,6v2.8c0,2.3-0.8,4.3-2.5,6c-0.2,0.2-0.3,0.3-0.5,0.4l0,0
		c0.5,0.3,0.9,0.7,1.4,1.1c1.6,1.6,2.5,3.6,2.5,6v4.2c0,2.3-0.8,4.3-2.5,6c-1.6,1.6-3.6,2.5-6,2.5H15.5c-0.6,0-0.9-0.3-0.9-0.9V20.3
		c0-0.6,0.3-0.9,0.9-0.9H30.5z M23.6,27.5v6.3c0,0.4,0.2,0.6,0.6,0.6h4c1.2,0,1.7-0.6,1.7-1.7v-4c0-1.2-0.6-1.7-1.7-1.7h-4
		C23.8,26.9,23.6,27.1,23.6,27.5z M23.6,42.5v6.3c0,0.4,0.2,0.6,0.6,0.6h4.3c1.6,0,2.4-0.7,2.4-2v-3.5c0-1.3-0.7-2-2-2h-4.6
		C23.8,41.9,23.6,42.1,23.6,42.5z"/>
	<path class="st0" d="M68.1,48.4c0,2.3-0.8,4.3-2.5,6c-1.6,1.6-3.6,2.5-6,2.5h-7.7c-2.3,0-4.3-0.8-6-2.5c-1.6-1.6-2.5-3.6-2.5-6
		V27.9c0-2.3,0.8-4.3,2.5-6s3.6-2.5,6-2.5h7.7c2.3,0,4.3,0.8,6,2.5c1.7,1.7,2.5,3.6,2.5,6V48.4z M52.5,47.1c0,1.5,0.7,2.2,2.2,2.2
		h2.1c1.5,0,2.2-0.7,2.2-2.2V29.2c0-1.5-0.7-2.2-2.2-2.2h-2.1c-1.5,0-2.2,0.7-2.2,2.2V47.1z"/>
	<path class="st0" d="M74.3,54.3c-1.6-1.6-2.5-3.6-2.5-6v-28c0-0.6,0.3-0.9,0.8-0.9h7.3c0.6,0,0.9,0.3,0.9,0.9v28.1
		c0,0.6,0.3,0.9,0.9,0.9h15.9c0.6,0,0.9,0.3,0.9,0.9v5.7c0,0.6-0.3,0.9-0.9,0.9H80.2C77.9,56.8,75.9,56,74.3,54.3z"/>
</g>
<g>
	<g>
		<path class="st1" d="M148.3,37.1c0,13.4-10.9,24.3-24.3,24.3S99.7,50.5,99.7,37.1s10.9-24.3,24.3-24.3S148.3,23.6,148.3,37.1z"/>
		<path d="M124,12.6c-5.9,0-11.6,2.1-16.1,6c-4.4,3.9-7.3,9.2-8,14.9c-0.2,1.1-0.2,2.2-0.2,3.3c0,13.4,10.9,24.3,24.3,24.3
			s24.3-10.9,24.3-24.3S137.4,12.6,124,12.6z M126.8,56.3l-5.6-4.3l1.1-6l9.1-4.1l5.2,3l-0.3,7.2L126.8,56.3z M137.3,43.7l-5.2-3
			l-0.9-9.9l4.2-3.9l6.6,2.5l1.1,10L137.3,43.7z M132.2,19.1l2.2,6.9l-4.2,3.9l-9.9-1.9l-2.6-5.6l4.5-5.4L132.2,19.1z M109.5,23.2
			l7.1-0.3l2.6,5.6l-4.9,8.8l-5.8,0.5l-3.9-6L109.5,23.2z M108.7,39.1l5.8-0.5l6.5,7.2l-1.1,6l-7,1.6l-6.4-7.4L108.7,39.1z
			 M127.1,57.6l10-4.5l3.1,0.1c-3.9,3.9-9.3,6.4-15.2,6.7L127.1,57.6z M144.4,39.5l-1.1-10.4l1.4-2.2c1.5,3,2.3,6.4,2.3,10.1
			c0,1.9-0.2,3.7-0.7,5.4L144.4,39.5z M135.3,16.9l-2.6,1l-10.4-2.2l-1.6-1.5c1.1-0.2,2.2-0.2,3.3-0.2
			C128.1,13.9,131.9,15,135.3,16.9z M108.5,20v2.4l-5.1,8.9l-1.9,1.2C102.4,27.6,104.9,23.2,108.5,20z M102.6,45.5l2.7,1.1l6.7,7.7
			l0.3,2.5C108,54.2,104.5,50.2,102.6,45.5z"/>
	</g>
</g>
<g>
	<path class="st2" d="M28.6,17.1c2.3,0,4.3,0.8,6,2.5s2.5,3.6,2.5,6v2.8c0,2.3-0.8,4.3-2.5,6c-0.2,0.2-0.3,0.3-0.5,0.4l0,0
		c0.5,0.3,0.9,0.7,1.4,1.1c1.6,1.6,2.5,3.6,2.5,6v4.2c0,2.3-0.8,4.3-2.5,6s-3.6,2.5-6,2.5H13.7c-0.6,0-0.9-0.3-0.9-0.9V18
		c0-0.6,0.3-0.9,0.9-0.9H28.6z M21.7,25.2v6.3c0,0.4,0.2,0.6,0.6,0.6h4c1.2,0,1.7-0.6,1.7-1.7v-4c0-1.2-0.6-1.7-1.7-1.7h-4
		C21.9,24.6,21.7,24.8,21.7,25.2z M21.7,40.2v6.3c0,0.4,0.2,0.6,0.6,0.6h4.3c1.6,0,2.4-0.7,2.4-2v-3.5c0-1.3-0.7-2-2-2h-4.6
		C21.9,39.6,21.7,39.8,21.7,40.2z"/>
	<path class="st2" d="M66.2,46.1c0,2.3-0.8,4.3-2.5,6s-3.6,2.5-6,2.5H50c-2.3,0-4.3-0.8-6-2.5s-2.5-3.6-2.5-6V25.6
		c0-2.3,0.8-4.3,2.5-6s3.6-2.5,6-2.5h7.7c2.3,0,4.3,0.8,6,2.5c1.7,1.7,2.5,3.6,2.5,6V46.1z M50.6,44.8c0,1.5,0.7,2.2,2.2,2.2H55
		c1.5,0,2.2-0.7,2.2-2.2V26.9c0-1.5-0.7-2.2-2.2-2.2h-2.1c-1.5,0-2.2,0.7-2.2,2.2v17.9H50.6z"/>
	<path class="st2" d="M72.4,52c-1.6-1.6-2.5-3.6-2.5-6V18c0-0.6,0.3-0.9,0.8-0.9H78c0.6,0,0.9,0.3,0.9,0.9v28.1
		c0,0.6,0.3,0.9,0.9,0.9h15.9c0.6,0,0.9,0.3,0.9,0.9v5.7c0,0.6-0.3,0.9-0.9,0.9H78.4C76,54.5,74.1,53.7,72.4,52z"/>
</g>
<g>
	<path class="st2" d="M178,34.6c0,2.3-0.8,4.3-2.5,6s-3.6,2.5-6,2.5h-6.3c-0.4,0-0.6,0.2-0.6,0.6v11c0,0.6-0.3,0.9-0.9,0.9h-7.2
		c-0.6,0-0.9-0.3-0.9-0.9V19c0-0.6,0.3-0.9,0.9-0.9h15c2.3,0,4.3,0.8,6,2.5s2.5,3.6,2.5,6V34.6z M162.7,25.8v9.4
		c0,0.4,0.2,0.6,0.6,0.6h4c1.2,0,1.7-0.6,1.7-1.7V27c0-1.2-0.6-1.7-1.7-1.7h-4C162.9,25.2,162.7,25.4,162.7,25.8z"/>
	<path class="st2" d="M181.8,47.1V19c0-0.6,0.3-0.9,0.9-0.9h20.6c0.6,0,0.9,0.3,0.9,0.9v5.7c0,0.6-0.3,0.9-0.9,0.9h-12
		c-0.4,0-0.6,0.2-0.6,0.6v6.3c0,0.4,0.2,0.6,0.6,0.6h10c0.6,0,0.9,0.3,0.9,0.9v5.7c0,0.6-0.3,0.9-0.9,0.9h-10
		c-0.4,0-0.6,0.2-0.6,0.6v3.6c0,2.2,1.1,3.2,3.2,3.2h9.9c0.6,0,0.9,0.3,0.9,0.9v5.7c0,0.6-0.3,0.9-0.9,0.9h-13.7
		c-2.3,0-4.3-0.8-6-2.5S181.8,49.4,181.8,47.1z"/>
	<path class="st2" d="M228.2,40.4V19c0-0.6,0.3-0.9,0.9-0.9h7.2c0.6,0,0.9,0.3,0.9,0.9v35.6c0,0.6-0.3,0.9-0.9,0.9H226
		c-0.6,0-1-0.3-1.2-0.9l-7.3-21.5v21.5c0,0.6-0.3,0.9-0.9,0.9h-7.2c-0.6,0-0.9-0.3-0.9-0.9V19c0-0.6,0.3-0.9,0.9-0.9h10.4
		c0.6,0,1,0.3,1.2,0.9L228.2,40.4z"/>
</g>
</svg>
